<svg width="244" height="281" viewBox="0 0 244 281" fill="none" xmlns="http://www.w3.org/2000/svg">
<g opacity="0.5">
<g opacity="0.8">
<path d="M156.07 107.216C156.111 107.216 156.153 107.204 156.194 107.185L168.51 100.939C168.6 100.895 168.648 100.806 168.641 100.718C168.641 100.629 168.572 100.547 168.482 100.509L152.874 94.6677C152.784 94.6361 152.68 94.6487 152.605 94.7056C152.529 94.7625 152.501 94.8573 152.522 94.9395L155.822 107.027C155.842 107.096 155.897 107.16 155.966 107.185C156.001 107.198 156.036 107.204 156.07 107.204V107.216ZM167.785 100.762L156.243 106.622L153.15 95.2872L167.785 100.762Z" fill="#4291DC"/>
<path d="M168.386 100.971C168.468 100.971 168.551 100.933 168.6 100.869C168.669 100.781 168.662 100.654 168.579 100.572L149.698 81.7901C149.615 81.708 149.491 81.689 149.387 81.7396C149.284 81.7901 149.229 81.8976 149.256 82.0051L152.528 94.9458C152.549 95.0217 152.604 95.0849 152.68 95.1102L168.289 100.952C168.289 100.952 168.351 100.971 168.386 100.971ZM149.981 82.77L167.412 100.111L152.998 94.7182L149.981 82.77Z" fill="#4291DC"/>
<path d="M152.77 95.129C152.77 95.129 152.839 95.129 152.873 95.1101C152.99 95.0658 153.053 94.952 153.025 94.8382L149.753 81.8975C149.739 81.8532 149.718 81.8153 149.684 81.7837L132.991 66.9401C132.895 66.8579 132.75 66.8516 132.646 66.9274C132.542 67.0033 132.522 67.136 132.591 67.2435L152.549 95.0279C152.597 95.0974 152.68 95.1354 152.763 95.1354L152.77 95.129ZM149.263 82.0682L152.19 93.6561L134.324 68.786L149.263 82.0745V82.0682Z" fill="#4291DC"/>
<path d="M152.77 95.1292C152.846 95.1292 152.922 95.0976 152.97 95.0407C153.039 94.9585 153.046 94.8447 152.984 94.7625L133.026 66.9782C132.971 66.9023 132.867 66.8644 132.771 66.877L91.6331 72.6362C91.5158 72.6552 91.426 72.7374 91.4122 72.8448C91.3984 72.9523 91.4674 73.0534 91.5779 73.0914L152.673 95.1166C152.673 95.1166 152.736 95.1355 152.77 95.1355V95.1292ZM132.688 67.3638L152.107 94.3959L92.6617 72.9649L132.688 67.3638Z" fill="#4291DC"/>
<path d="M91.6741 73.1039C91.6741 73.1039 91.7017 73.1039 91.7155 73.1039L132.853 67.3448C132.929 67.3321 132.991 67.2942 133.033 67.2373C133.074 67.1804 133.081 67.1109 133.06 67.0413L128.863 54.0563C128.842 53.9868 128.787 53.9299 128.711 53.9046C128.635 53.8793 128.559 53.8793 128.49 53.9172L91.5912 72.6424C91.4808 72.674 91.4049 72.7626 91.4049 72.87C91.4049 73.0028 91.5291 73.1103 91.6672 73.1103L91.6741 73.1039ZM132.48 66.9149L93.0686 72.4338L128.463 54.4736L132.48 66.9149Z" fill="#4291DC"/>
<path d="M187.411 128.711C187.473 128.711 187.535 128.692 187.584 128.647C187.673 128.572 187.694 128.445 187.625 128.344L168.592 100.604C168.516 100.496 168.371 100.458 168.247 100.522L155.931 106.768C155.856 106.806 155.807 106.881 155.8 106.957C155.8 107.039 155.835 107.115 155.904 107.166L187.245 128.66C187.294 128.692 187.349 128.704 187.397 128.704L187.411 128.711ZM168.296 101.046L186.452 127.516L156.546 107.008L168.296 101.046Z" fill="#4291DC"/>
<path d="M167.854 155.939C167.937 155.939 168.02 155.901 168.068 155.831L187.632 128.603C187.708 128.496 187.681 128.357 187.57 128.281L156.228 106.787C156.139 106.73 156.021 106.723 155.932 106.78C155.842 106.837 155.794 106.932 155.821 107.033L167.605 155.755C167.626 155.85 167.709 155.92 167.812 155.939C167.826 155.939 167.847 155.939 167.861 155.939H167.854ZM187.066 128.534L167.978 155.104L156.477 107.558L187.066 128.534Z" fill="#4291DC"/>
<path d="M167.854 155.939C167.909 155.939 167.964 155.92 168.005 155.894C168.088 155.838 168.13 155.743 168.102 155.654L156.318 106.932C156.29 106.818 156.201 106.749 156.056 106.749L78.7577 109.126C78.6404 109.126 78.5437 109.202 78.5161 109.309C78.4885 109.41 78.5368 109.518 78.6404 109.575L167.722 155.92C167.764 155.939 167.805 155.951 167.847 155.951L167.854 155.939ZM155.862 107.223L167.474 155.231L79.6966 109.562L155.869 107.223H155.862Z" fill="#4291DC"/>
<path d="M78.7579 109.594C78.7579 109.594 78.7648 109.594 78.7717 109.594H78.7786L156.076 107.217C156.152 107.217 156.228 107.179 156.277 107.122C156.325 107.065 156.339 106.989 156.318 106.92L153.018 94.8322C152.984 94.7058 152.846 94.6299 152.714 94.6552L78.7372 109.113C78.5991 109.12 78.4956 109.221 78.4956 109.347C78.4956 109.474 78.6129 109.587 78.7579 109.587V109.594ZM155.745 106.755L81.685 109.031L152.583 95.1736L155.745 106.755Z" fill="#4291DC"/>
<path d="M78.7721 109.594C78.7721 109.594 78.8066 109.594 78.8273 109.594L152.832 95.1293C152.943 95.1103 153.026 95.0218 153.032 94.9143C153.039 94.8132 152.977 94.712 152.867 94.6741L91.7713 72.6489C91.7023 72.6236 91.6332 72.6299 91.5642 72.6552C91.5021 72.6805 91.4537 72.7311 91.4261 72.7943L78.5443 109.221C78.5167 109.259 78.496 109.309 78.496 109.36C78.496 109.492 78.5995 109.606 78.7583 109.6L78.7721 109.594ZM151.88 94.8258L79.1587 109.037L91.8403 73.1799L151.88 94.8258Z" fill="#4291DC"/>
<path d="M78.7717 109.593C78.8545 109.593 78.9374 109.555 78.9857 109.492C79.034 109.429 79.0478 109.341 79.0133 109.265L61.7754 70.0947C61.734 69.9999 61.6304 69.943 61.5131 69.9493C61.4026 69.9557 61.306 70.0315 61.2784 70.1327L51.579 108.051C51.5583 108.12 51.579 108.19 51.6273 108.247C51.6757 108.304 51.7447 108.335 51.8206 108.342L78.7579 109.593C78.7579 109.593 78.7648 109.593 78.7717 109.593ZM61.6028 70.9671L78.3782 109.1L52.1589 107.88L61.6028 70.9671Z" fill="#4291DC"/>
<path d="M78.772 109.594H78.7789C78.8893 109.594 78.9791 109.524 79.0136 109.429L91.923 72.9399C91.9437 72.8703 91.9368 72.7945 91.8954 72.7376C91.854 72.6807 91.7849 72.6364 91.7021 72.6301L61.5617 69.9497C61.4719 69.937 61.3822 69.975 61.327 70.0445C61.2717 70.114 61.2579 70.1962 61.2924 70.2784L78.5303 109.448C78.5718 109.537 78.6684 109.6 78.772 109.6V109.594ZM91.3362 73.0727L78.7513 108.658L61.9414 70.4554L91.3362 73.0663V73.0727Z" fill="#4291DC"/>
<path d="M167.854 155.939C167.965 155.939 168.068 155.875 168.103 155.774C168.144 155.667 168.089 155.553 167.985 155.496L78.9032 109.151C78.8066 109.1 78.6892 109.113 78.6064 109.176L36.0674 141.727C35.9845 141.79 35.9569 141.885 35.9845 141.98C36.0121 142.069 36.1019 142.138 36.2054 142.144L167.833 155.939C167.833 155.939 167.854 155.939 167.861 155.939H167.854ZM78.7997 109.644L166.625 155.332L36.8613 141.733L78.7997 109.644Z" fill="#4291DC"/>
<path d="M36.2258 142.145C36.281 142.145 36.3431 142.126 36.3915 142.088L78.9305 109.537C79.0133 109.473 79.0478 109.372 79.0133 109.277C78.9788 109.183 78.8891 109.119 78.7786 109.113L51.8414 107.861C51.7378 107.849 51.6343 107.912 51.5929 108.007L36.0118 141.753C35.9704 141.797 35.9497 141.847 35.9497 141.904C35.9497 142.037 36.0463 142.151 36.212 142.145H36.2258ZM78.0952 109.562L36.8816 141.095L52.0002 108.348L78.0952 109.562Z" fill="#4291DC"/>
<path d="M19.9274 142.663L36.2265 142.144C36.33 142.144 36.4197 142.088 36.4543 141.999L52.063 108.196C52.1113 108.089 52.063 107.962 51.9594 107.905C51.849 107.842 51.7109 107.861 51.628 107.956L19.7203 142.284C19.6513 142.353 19.6375 142.454 19.6858 142.543C19.7272 142.625 19.817 142.675 19.9205 142.675L19.9274 142.663ZM36.0539 141.677L20.5073 142.176L50.9377 109.435L36.0539 141.683V141.677Z" fill="#4291DC"/>
<path d="M168.385 100.971C168.433 100.971 168.482 100.958 168.523 100.933C168.627 100.869 168.668 100.749 168.62 100.642L155.676 71.9028C155.634 71.8207 155.552 71.7638 155.448 71.7574C155.344 71.7574 155.255 71.8017 155.206 71.8839L149.276 81.8407C149.221 81.9292 149.235 82.043 149.311 82.1126L168.192 100.895C168.24 100.945 168.309 100.971 168.385 100.971ZM155.407 72.5477L167.591 99.5924L149.822 81.9166L155.407 72.5477Z" fill="#4291DC"/>
<path d="M149.505 82.1884C149.505 82.1884 149.532 82.1884 149.546 82.1884C149.629 82.1758 149.698 82.1315 149.733 82.0683L155.663 72.1115C155.704 72.0482 155.704 71.9661 155.669 71.9028C155.635 71.8333 155.573 71.789 155.49 71.7701L132.867 66.877C132.757 66.8517 132.64 66.9023 132.584 66.9908C132.529 67.0856 132.55 67.1994 132.633 67.2753L149.325 82.1189C149.374 82.1631 149.436 82.1884 149.505 82.1884ZM155.048 72.1557L149.443 81.5626L133.668 67.5345L155.048 72.1557Z" fill="#4291DC"/>
<path d="M155.434 72.2316C155.531 72.2316 155.628 72.181 155.669 72.0925C155.717 71.9914 155.683 71.8713 155.586 71.8017L128.766 53.93C128.677 53.8731 128.552 53.8667 128.463 53.93C128.373 53.9869 128.331 54.0943 128.366 54.1891L132.563 67.1742C132.591 67.2563 132.66 67.3196 132.75 67.3385L155.372 72.2316C155.372 72.2316 155.414 72.2379 155.434 72.2379V72.2316ZM129.084 54.7265L154.247 71.4983L133.019 66.9086L129.084 54.7265Z" fill="#4291DC"/>
<path d="M91.675 73.104C91.7164 73.104 91.7579 73.0914 91.7993 73.0724L128.74 54.3282C128.822 54.284 128.878 54.2018 128.871 54.1133C128.871 54.0248 128.816 53.9426 128.726 53.9046L93.0074 37.7524C92.9314 37.7145 92.8348 37.7208 92.7589 37.7587C92.6829 37.803 92.6346 37.8725 92.6346 37.9547L91.4127 72.8511C91.4127 72.9396 91.4541 73.0155 91.5369 73.0597C91.5784 73.085 91.6267 73.0977 91.675 73.0977V73.104ZM128.056 54.1385L91.9443 72.4592L93.1385 38.3467L128.049 54.1385H128.056Z" fill="#4291DC"/>
<path d="M128.615 54.3598C128.67 54.3598 128.725 54.3408 128.773 54.3092C128.849 54.2523 128.891 54.1638 128.87 54.0753L124.466 33.8329C124.438 33.7064 124.314 33.6243 124.176 33.6432L92.8685 37.7271C92.758 37.7398 92.6683 37.8219 92.6476 37.9231C92.6269 38.0242 92.689 38.1254 92.7856 38.176L128.504 54.3282C128.539 54.3472 128.58 54.3535 128.621 54.3535L128.615 54.3598ZM124.003 34.149L128.262 53.696L93.7659 38.0938L124.003 34.149Z" fill="#4291DC"/>
<path d="M91.6747 73.1039C91.7368 73.1039 91.799 73.0849 91.8473 73.047C91.9025 73.0027 91.9301 72.9395 91.937 72.8763L93.1589 37.9799C93.1589 37.8787 93.0968 37.7902 92.9932 37.7523C92.8897 37.7144 92.7723 37.7396 92.7033 37.8155L61.3341 70.0315C61.2719 70.101 61.2512 70.1895 61.2857 70.278C61.3203 70.3602 61.4031 70.4171 61.4998 70.4297L91.6402 73.1102C91.6402 73.1102 91.654 73.1102 91.6678 73.1102L91.6747 73.1039ZM92.6136 38.6121L91.4193 72.6044L62.0589 69.9935L92.6067 38.6121H92.6136Z" fill="#4291DC"/>
<path d="M92.8963 38.2077C92.8963 38.2077 92.924 38.2077 92.9309 38.2077L124.238 34.1238C124.369 34.1048 124.466 33.9973 124.459 33.8772L124.19 28.3204C124.19 28.2445 124.141 28.175 124.079 28.137C124.01 28.0928 123.927 28.0865 123.851 28.1054L92.8411 37.7399C92.7169 37.7588 92.6202 37.8537 92.6202 37.9738C92.6202 38.1065 92.7376 38.214 92.8825 38.214C92.8825 38.214 92.8894 38.214 92.8963 38.214V38.2077ZM123.934 33.6813L95.6163 37.3795L123.693 28.6617L123.941 33.6876L123.934 33.6813Z" fill="#4291DC"/>
<path d="M92.8964 38.2075C92.8964 38.2075 92.9516 38.2075 92.9792 38.1949L124.017 28.5541C124.114 28.5225 124.183 28.4403 124.19 28.3455C124.19 28.2507 124.134 28.1622 124.045 28.1179L100.221 17.63C100.152 17.5984 100.076 17.5984 100.007 17.63C99.9379 17.6553 99.8827 17.7059 99.862 17.7754L92.6686 37.8345C92.641 37.8725 92.6203 37.923 92.6203 37.9736C92.6203 38.1064 92.7307 38.2075 92.8826 38.2139L92.8964 38.2075ZM123.251 28.2886L93.3037 37.588L100.269 18.1674L123.251 28.2823V28.2886Z" fill="#4291DC"/>
<path d="M61.5335 70.4238C61.6094 70.4238 61.6784 70.3985 61.7268 70.3479L93.096 38.1319C93.1443 38.0814 93.165 38.0182 93.1581 37.9549C93.1581 37.8917 93.1167 37.8285 93.0615 37.7906L42.7492 0.0683063C42.6595 0.00508819 42.5421 -0.00123285 42.4454 0.0493417C42.3488 0.106238 42.3074 0.207384 42.335 0.308533L61.278 70.2531C61.2987 70.3353 61.3747 70.4048 61.4644 70.4238C61.4851 70.4238 61.5058 70.4301 61.5265 70.4301L61.5335 70.4238ZM92.523 37.9929L61.6646 69.6904L43.0253 0.877498L92.523 37.9929Z" fill="#4291DC"/>
<path d="M92.8962 38.2076C92.8962 38.2076 92.9445 38.2076 92.9722 38.195C93.055 38.176 93.1171 38.1191 93.1447 38.0433L100.366 17.9146C100.407 17.7882 100.338 17.6554 100.2 17.6175L42.6668 0.0238974C42.5494 -0.0140335 42.4183 0.0365399 42.3561 0.131367C42.294 0.232516 42.3216 0.358953 42.4183 0.428493L92.7305 38.1507C92.7789 38.1887 92.8341 38.2076 92.8962 38.2076ZM99.7859 17.9905L92.7651 37.5628L43.8334 0.877341L99.7859 17.9905Z" fill="#4291DC"/>
<path d="M36.6544 209.516C36.6889 209.516 36.7234 209.51 36.7579 209.497L167.951 155.914C168.055 155.869 168.117 155.768 168.103 155.661C168.082 155.553 167.992 155.471 167.875 155.458L36.2471 141.664C36.1711 141.658 36.1021 141.677 36.0469 141.721C35.9916 141.765 35.964 141.829 35.964 141.898L36.392 209.276C36.392 209.358 36.4404 209.428 36.5094 209.472C36.5508 209.497 36.5992 209.51 36.6475 209.51L36.6544 209.516ZM166.881 155.831L36.9167 208.909L36.4887 142.164L166.881 155.831Z" fill="#4291DC"/>
<path d="M167.853 155.939C167.853 155.939 167.895 155.939 167.916 155.932L175.882 154.175C175.965 154.156 176.027 154.105 176.062 154.036L187.653 128.572C187.701 128.458 187.653 128.331 187.535 128.268C187.418 128.211 187.273 128.243 187.197 128.344L167.639 155.572C167.584 155.654 167.584 155.762 167.639 155.838C167.688 155.901 167.771 155.939 167.853 155.939ZM175.634 153.739L168.426 155.332L186.106 130.721L175.627 153.745L175.634 153.739Z" fill="#4291DC"/>
<path d="M-11.8704 67.8633C-11.7876 67.8633 -11.7116 67.8253 -11.6633 67.7685L42.7979 0.390562C42.8739 0.302057 42.867 0.17562 42.7841 0.0934364C42.7013 0.0112528 42.5632 -0.00771247 42.4597 0.0491839L-29.1428 38.922C-29.2602 38.9852 -29.3016 39.1306 -29.2395 39.2381L-12.0982 67.7432C-12.0568 67.8127 -11.974 67.857 -11.8911 67.8633C-11.8911 67.8633 -11.8773 67.8633 -11.8704 67.8633ZM41.6175 1.04803L-11.8428 67.1868L-28.6665 39.2065L41.6175 1.04803Z" fill="#4291DC"/>
<path d="M61.5343 70.4235C61.6102 70.4235 61.6861 70.3919 61.7345 70.335C61.7828 70.2781 61.8035 70.2023 61.7828 70.1264L42.8397 0.181875C42.8121 0.0933701 42.7362 0.0238309 42.6395 0.00486549C42.5429 -0.0140999 42.4393 0.0238305 42.3841 0.0933705L-12.0771 67.4776C-12.1324 67.5471 -12.1462 67.6419 -12.1048 67.7241C-12.0633 67.8 -11.9805 67.8569 -11.8839 67.8569L61.5205 70.4172H61.5273L61.5343 70.4235ZM42.467 0.788769L61.196 69.9368L-11.373 67.408L42.467 0.795092V0.788769Z" fill="#4291DC"/>
<path d="M29.3434 218.986C29.4263 218.986 29.5022 218.948 29.5575 218.885L36.8682 209.421C36.9303 209.339 36.9303 209.225 36.8682 209.143C36.8061 209.061 36.6887 209.023 36.5783 209.055L29.0604 211.261C28.95 211.292 28.8809 211.387 28.8809 211.495L29.088 218.752C29.088 218.853 29.164 218.942 29.2744 218.973C29.302 218.98 29.3227 218.986 29.3504 218.986H29.3434ZM35.9915 209.725L29.5782 218.032L29.3918 211.665L35.9915 209.731V209.725Z" fill="#4291DC"/>
<path d="M29.1364 211.729C29.1364 211.729 29.1916 211.729 29.2192 211.716L36.737 209.51C36.8613 209.472 36.9372 209.358 36.9096 209.244L26.658 156.761C26.6373 156.634 26.5061 156.552 26.375 156.565C26.2369 156.577 26.1403 156.685 26.1472 156.811L28.8809 211.508C28.8809 211.583 28.9223 211.647 28.9914 211.691C29.0328 211.716 29.088 211.735 29.1364 211.735V211.729ZM36.3643 209.124L29.3849 211.173L26.8444 160.389L36.3643 209.118V209.124Z" fill="#4291DC"/>
<path d="M36.654 209.516C36.654 209.516 36.6678 209.516 36.6747 209.516C36.8059 209.503 36.9094 209.402 36.9094 209.276L36.4814 141.898C36.4814 141.79 36.4055 141.696 36.2881 141.67C36.1777 141.645 36.0603 141.683 35.9982 141.778L26.1746 156.666C26.1401 156.716 26.1332 156.773 26.1401 156.83L36.3917 209.314C36.4124 209.428 36.5228 209.51 36.6471 209.51L36.654 209.516ZM35.9706 142.745L36.3779 206.52L26.6716 156.843L35.9706 142.751V142.745Z" fill="#4291DC"/>
<path d="M26.4019 157.032C26.4916 157.032 26.5745 156.988 26.6228 156.919L36.4464 142.031C36.4947 141.955 36.4947 141.866 36.4464 141.791C36.3981 141.715 36.3084 141.677 36.2117 141.677L19.9127 142.195C19.8298 142.195 19.747 142.239 19.7056 142.303C19.6572 142.366 19.6503 142.448 19.6849 142.524L26.1603 156.893C26.1948 156.976 26.2845 157.032 26.3812 157.039C26.3812 157.039 26.395 157.039 26.4019 157.039V157.032ZM35.7561 142.157L26.4433 156.268L20.3062 142.65L35.7561 142.157Z" fill="#4291DC"/>
<path d="M9.16439 91.4373C9.25413 91.4373 9.33698 91.3931 9.3853 91.3172C9.44053 91.2287 9.43363 91.1212 9.36459 91.0454L-11.6702 67.4713C-11.7185 67.4144 -11.7945 67.3828 -11.8704 67.3828C-11.9463 67.3828 -12.0223 67.4144 -12.0706 67.465L-28.0383 85.0523C-28.0935 85.1155 -28.1142 85.204 -28.0797 85.2862C-28.0452 85.362 -27.9692 85.4253 -27.8795 85.4379L9.12297 91.4183C9.12297 91.4183 9.15059 91.4183 9.1713 91.4183L9.16439 91.4373ZM-11.8773 68.0023L8.52237 90.8557L-27.3548 85.0523L-11.8773 67.996V68.0023Z" fill="#4291DC"/>
<path d="M19.9269 142.663C20.0028 142.663 20.0718 142.631 20.1271 142.581L52.0348 108.253C52.09 108.196 52.1107 108.12 52.09 108.045C52.0693 107.969 52.0141 107.912 51.9381 107.88L9.26797 90.9757C9.17823 90.9441 9.07467 90.9568 9.00564 91.0073C8.9297 91.0642 8.89518 91.1527 8.91589 91.2349L19.6784 142.467C19.6991 142.555 19.7681 142.625 19.8647 142.65C19.8854 142.65 19.9062 142.657 19.9338 142.657L19.9269 142.663ZM51.4066 108.19L20.0788 141.898L9.50957 91.5953L51.4066 108.196V108.19Z" fill="#4291DC"/>
<path d="M51.8345 108.335C51.8759 108.335 51.9173 108.329 51.9518 108.31C52.0209 108.279 52.0692 108.222 52.0899 108.152L61.7892 70.2339C61.81 70.1453 61.7754 70.0568 61.6995 69.9999C61.6236 69.9431 61.52 69.9304 61.4303 69.9683L9.06075 90.982C8.9641 91.02 8.90197 91.1085 8.90887 91.197C8.90887 91.2918 8.97101 91.374 9.06766 91.4119L51.7378 108.316C51.7378 108.316 51.8069 108.335 51.8414 108.335H51.8345ZM61.1679 70.5879L51.655 107.766L9.81322 91.1907L61.161 70.5879H61.1679Z" fill="#4291DC"/>
<path d="M9.16479 91.4374C9.19931 91.4374 9.23384 91.431 9.26836 91.4184L61.6379 70.4047C61.7483 70.3604 61.8105 70.253 61.7897 70.1455C61.769 70.038 61.6655 69.9558 61.5481 69.9558L-11.8562 67.3955C-11.9666 67.3955 -12.0495 67.4461 -12.0978 67.5283C-12.1461 67.6105 -12.1323 67.7116 -12.0633 67.7811L8.9715 91.3552C9.01982 91.4121 9.09577 91.4437 9.1717 91.4437L9.16479 91.4374ZM60.3953 70.3857L9.24074 90.9127L-11.3108 67.8886L60.3953 70.3921V70.3857Z" fill="#4291DC"/>
</g>
<g opacity="0.3">
<path d="M46.6911 270.402C46.7671 270.402 46.8361 270.376 46.8844 270.319L62.072 254.648C62.1341 254.578 62.1549 254.49 62.1203 254.401C62.0858 254.319 62.003 254.262 61.9063 254.249L43.5225 252.675C43.4465 252.675 43.3637 252.694 43.3085 252.751C43.2532 252.802 43.2325 252.877 43.2463 252.953L46.4426 270.199C46.4564 270.288 46.5324 270.364 46.629 270.389C46.6497 270.389 46.6773 270.395 46.698 270.395L46.6911 270.402ZM61.3402 254.686L46.8499 269.637L43.7986 253.187L61.3333 254.686H61.3402Z" fill="#4291DC"/>
</g>
<g opacity="0.3">
<path d="M46.6912 270.401C46.6912 270.401 46.7602 270.401 46.7947 270.382L81.5397 256.702C81.6502 256.658 81.7123 256.557 81.6916 256.449C81.6709 256.342 81.5811 256.259 81.4638 256.247L61.8994 254.255C61.8097 254.249 61.7338 254.274 61.6785 254.331L46.491 270.003C46.4081 270.085 46.4012 270.212 46.4772 270.3C46.5255 270.363 46.6083 270.401 46.6842 270.401H46.6912ZM80.4352 256.62L47.6576 269.529L61.9823 254.742L80.4352 256.62Z" fill="#4291DC"/>
</g>
<g opacity="0.3">
<path d="M81.4368 256.715C81.4783 256.715 81.5197 256.708 81.5542 256.689L109.81 243.799C109.927 243.749 109.983 243.616 109.941 243.508C109.893 243.395 109.769 243.331 109.637 243.363L61.8173 254.262C61.693 254.287 61.6171 254.395 61.624 254.508C61.6309 254.622 61.7275 254.717 61.8518 254.73L81.4161 256.721C81.4161 256.721 81.4368 256.721 81.4438 256.721L81.4368 256.715ZM107.463 244.343L81.3885 256.234L63.336 254.401L107.456 244.343H107.463Z" fill="#4291DC"/>
</g>
<g opacity="0.3">
<path d="M61.8792 254.723C61.8792 254.723 61.9206 254.723 61.9413 254.717L109.761 243.818C109.858 243.793 109.934 243.723 109.955 243.635L120.407 192.82C120.427 192.713 120.372 192.612 120.262 192.561C120.158 192.517 120.034 192.536 119.951 192.618L61.6859 254.332C61.61 254.407 61.6031 254.521 61.6583 254.61C61.7066 254.679 61.7895 254.723 61.8792 254.723ZM109.472 243.395L62.6041 254.079L119.709 193.598L109.465 243.395H109.472Z" fill="#4291DC"/>
</g>
<g opacity="0.3">
<path d="M129.734 244.747C129.81 244.747 129.879 244.716 129.927 244.665C129.982 244.608 130.003 244.539 129.989 244.469L120.4 192.738C120.38 192.624 120.276 192.542 120.145 192.542C120.034 192.542 119.91 192.624 119.89 192.738L109.438 243.552C109.424 243.622 109.438 243.692 109.486 243.742C109.534 243.799 109.603 243.831 109.679 243.831L129.713 244.754C129.713 244.754 129.72 244.754 129.727 244.754L129.734 244.747ZM120.131 194.122L129.423 244.261L110.004 243.369L120.131 194.129V194.122Z" fill="#4291DC"/>
</g>
<g opacity="0.3">
<path d="M-0.644936 280.225C-0.644936 280.225 -0.610409 280.225 -0.589699 280.225L46.7541 270.395C46.8853 270.37 46.975 270.25 46.9543 270.123L43.758 252.877C43.7442 252.801 43.689 252.732 43.6061 252.7C43.5233 252.669 43.4335 252.675 43.3576 252.719L-0.741573 279.77C-0.838223 279.802 -0.914162 279.89 -0.914162 279.992C-0.914162 280.124 -0.796818 280.232 -0.651848 280.232C-0.651848 280.232 -0.644932 280.232 -0.638027 280.232L-0.644936 280.225ZM46.402 269.978L0.659824 279.473L43.3162 253.314L46.402 269.978Z" fill="#4291DC"/>
</g>
<g opacity="0.3">
<path d="M-0.645245 280.225C-0.596924 280.225 -0.548603 280.213 -0.500278 280.187L43.6472 253.111C43.737 253.054 43.7784 252.953 43.7577 252.858C43.7301 252.763 43.6472 252.688 43.5368 252.681L-29.8675 244.583C-29.978 244.57 -30.0746 244.621 -30.1229 244.703C-30.1782 244.785 -30.1644 244.886 -30.1022 244.962L-0.845451 280.137C-0.797127 280.2 -0.714275 280.232 -0.638336 280.232L-0.645245 280.225ZM42.7774 253.073L-0.583118 279.669L-29.3222 245.12L42.7843 253.08L42.7774 253.073Z" fill="#4291DC"/>
</g>
<g opacity="0.3">
<path d="M43.4957 253.155C43.6061 253.155 43.7097 253.086 43.7442 252.991L75.1894 161.312C75.2239 161.211 75.1825 161.104 75.0858 161.04C74.9892 160.983 74.858 160.99 74.7752 161.059L-30.0743 244.64C-30.1502 244.703 -30.1848 244.798 -30.1502 244.887C-30.1226 244.975 -30.0329 245.038 -29.9362 245.051L43.4681 253.149C43.4681 253.149 43.4888 253.149 43.5026 253.149L43.4957 253.155ZM74.4162 161.97L43.3093 252.662L-29.3011 244.646L74.4162 161.97Z" fill="#4291DC"/>
</g>
<g opacity="0.3">
<path d="M61.8793 254.723C62.0104 254.723 62.1209 254.635 62.1347 254.515L75.196 161.262C75.2098 161.142 75.127 161.028 74.9958 161.002C74.8647 160.977 74.7335 161.047 74.6921 161.161L43.2469 252.839C43.2262 252.909 43.2331 252.985 43.2745 253.042C43.3159 253.099 43.385 253.143 43.4678 253.149L61.8517 254.723C61.8517 254.723 61.8655 254.723 61.8793 254.723ZM74.3124 163.854L61.6515 254.224L43.8406 252.7L74.3124 163.854Z" fill="#4291DC"/>
</g>
<g opacity="0.3">
<path d="M61.8798 254.723C61.9558 254.723 62.0248 254.698 62.0731 254.641L120.338 192.928C120.387 192.877 120.407 192.814 120.4 192.751C120.393 192.687 120.359 192.624 120.297 192.586L75.093 161.047C75.0171 160.996 74.9204 160.983 74.8376 161.015C74.7548 161.047 74.6926 161.123 74.6788 161.205L61.6244 254.388C61.6244 254.388 61.5968 254.451 61.5968 254.489C61.5968 254.622 61.7141 254.73 61.8591 254.73L61.8798 254.723ZM119.772 192.807L62.2457 253.737L75.1413 161.673L119.772 192.814V192.807Z" fill="#4291DC"/>
</g>
<g opacity="0.3">
<path d="M74.9407 161.47C74.9407 161.47 74.9476 161.47 74.9545 161.47L137.458 158.885C137.569 158.885 137.665 158.809 137.7 158.708C137.727 158.606 137.686 158.499 137.589 158.448L88.9477 130.026C88.8856 129.988 88.8028 129.981 88.7268 130C88.6509 130.019 88.5957 130.07 88.5681 130.133L74.699 161.141C74.6645 161.217 74.6783 161.3 74.7267 161.369C74.775 161.432 74.8578 161.47 74.9407 161.47ZM136.616 158.442L75.3342 160.977L88.9339 130.569L136.623 158.436L136.616 158.442Z" fill="#4291DC"/>
</g>
<g opacity="0.3">
<path d="M120.144 193.016C120.144 193.016 120.186 193.016 120.206 193.01C120.282 192.991 120.344 192.947 120.379 192.877L137.679 158.752C137.72 158.676 137.706 158.588 137.658 158.518C137.61 158.448 137.527 158.404 137.43 158.411L74.9265 160.996C74.8161 160.996 74.7263 161.066 74.6918 161.161C74.6573 161.255 74.6918 161.356 74.7816 161.42L119.985 192.959C120.034 192.991 120.089 193.01 120.144 193.01V193.016ZM137.03 158.904L120.041 192.409L75.6583 161.445L137.023 158.904H137.03Z" fill="#4291DC"/>
</g>
<g opacity="0.3">
<path d="M-29.923 245.051H-29.9092C-29.847 245.051 -29.7849 245.032 -29.7366 244.994L75.1129 161.413C75.1957 161.35 75.2234 161.243 75.1888 161.154L48.8177 96.6463C48.7832 96.5578 48.6934 96.4946 48.5899 96.4946C48.4863 96.4883 48.3897 96.5452 48.3482 96.6274L-30.1025 244.659C-30.1439 244.703 -30.1715 244.76 -30.1715 244.823C-30.1715 244.956 -30.0541 245.064 -29.9092 245.064L-29.923 245.051ZM74.6366 161.16L-29.1222 243.869L48.5415 97.3228L74.6366 161.16Z" fill="#4291DC"/>
</g>
<g opacity="0.3">
<path d="M74.9407 161.47C75.0442 161.47 75.1409 161.413 75.1823 161.325L89.0513 130.316C89.0927 130.222 89.0651 130.12 88.9892 130.051L48.749 96.5516C48.6593 96.4757 48.5281 96.4694 48.4315 96.5326C48.3348 96.5958 48.2934 96.7096 48.3348 96.8108L74.706 161.319C74.7405 161.407 74.8371 161.47 74.9407 161.47ZM88.499 130.285L74.9476 160.585L49.1839 97.5631L88.4921 130.291L88.499 130.285Z" fill="#4291DC"/>
</g>
<g opacity="0.3">
<path d="M88.8096 130.462C88.8648 130.462 88.9269 130.443 88.9753 130.411C89.0719 130.335 89.0995 130.209 89.0374 130.108L55.4038 77.27C55.3486 77.1878 55.2588 77.1435 55.1484 77.1562C55.0448 77.1688 54.962 77.2321 54.9275 77.3206L48.3278 96.659C48.3002 96.7475 48.3278 96.8423 48.4037 96.9055L88.6439 130.405C88.6922 130.443 88.7543 130.468 88.8165 130.468L88.8096 130.462ZM55.245 77.9717L87.7326 129.014L48.8662 96.6527L55.245 77.9717Z" fill="#4291DC"/>
</g>
<g opacity="0.3">
<path d="M46.6915 270.401C46.6915 270.401 46.6984 270.401 46.7053 270.401L92.696 268.151C92.7927 268.151 92.8824 268.088 92.9238 268.006C92.9652 267.923 92.9445 267.822 92.8755 267.759L81.6298 256.329C81.5538 256.253 81.4365 256.228 81.3329 256.272L46.5879 269.953C46.4706 269.997 46.4084 270.111 46.436 270.224C46.4637 270.332 46.5672 270.408 46.6915 270.408V270.401ZM92.1299 267.702L48.1274 269.858L81.3675 256.765L92.123 267.702H92.1299Z" fill="#4291DC"/>
</g>
<g opacity="0.3">
<path d="M92.6825 268.144C92.6825 268.144 92.6963 268.144 92.7032 268.144C92.7861 268.144 92.8551 268.1 92.9034 268.037L109.914 243.717C109.976 243.628 109.969 243.508 109.886 243.432C109.81 243.357 109.686 243.331 109.575 243.382L81.3195 256.272C81.2435 256.304 81.1952 256.367 81.1814 256.443C81.1676 256.519 81.1883 256.588 81.2435 256.645L92.4892 268.075C92.5375 268.125 92.6066 268.151 92.6825 268.151V268.144ZM108.968 244.185L92.648 267.519L81.8579 256.55L108.968 244.185Z" fill="#4291DC"/>
</g>
<g opacity="0.3">
<path d="M92.6828 268.144C92.7311 268.144 92.7863 268.132 92.8278 268.1L129.872 244.703C129.961 244.646 130.003 244.539 129.975 244.444C129.948 244.349 129.851 244.28 129.74 244.273L109.707 243.35C109.624 243.35 109.527 243.388 109.479 243.458L92.4688 267.778C92.3997 267.873 92.4205 267.999 92.5033 268.075C92.5516 268.119 92.6207 268.144 92.6828 268.144ZM128.953 244.71L93.594 267.044L109.831 243.831L128.953 244.71Z" fill="#4291DC"/>
</g>
<g opacity="0.3">
<path d="M129.733 244.748C129.802 244.748 129.864 244.722 129.912 244.678L168.558 210.073C168.62 210.016 168.647 209.933 168.627 209.858C168.606 209.782 168.551 209.712 168.468 209.687L120.234 192.555C120.151 192.523 120.047 192.536 119.978 192.593C119.909 192.643 119.875 192.732 119.888 192.814L129.477 244.545C129.491 244.634 129.56 244.703 129.65 244.729C129.678 244.735 129.705 244.741 129.733 244.741V244.748ZM167.909 209.997L129.905 244.027L120.475 193.155L167.909 210.003V209.997Z" fill="#4291DC"/>
</g>
<g opacity="0.3">
<path d="M160.012 248.686C160.136 248.686 160.24 248.61 160.268 248.496L168.635 209.959C168.655 209.857 168.6 209.75 168.503 209.706C168.407 209.655 168.283 209.674 168.2 209.744L129.554 244.349C129.485 244.412 129.458 244.507 129.492 244.589C129.52 244.678 129.603 244.735 129.699 244.748L159.978 248.686C159.978 248.686 160.005 248.686 160.012 248.686ZM167.965 210.616L159.805 248.187L130.293 244.349L167.965 210.616Z" fill="#4291DC"/>
</g>
<g opacity="0.3">
<path d="M168.379 210.142C168.455 210.142 168.524 210.117 168.572 210.06C168.641 209.984 168.655 209.877 168.606 209.788L137.679 158.531C137.631 158.455 137.541 158.411 137.444 158.411C137.348 158.411 137.258 158.468 137.216 158.55L119.916 192.675C119.889 192.732 119.882 192.801 119.916 192.865C119.944 192.928 119.999 192.972 120.061 192.997L168.296 210.129C168.296 210.129 168.358 210.148 168.392 210.148L168.379 210.142ZM137.465 159.169L167.806 209.447L120.496 192.643L137.472 159.169H137.465Z" fill="#4291DC"/>
</g>
<g opacity="0.3">
<path d="M167.895 250.867C167.95 250.867 168.005 250.854 168.047 250.823C168.109 250.779 168.15 250.709 168.15 250.633L168.634 209.914C168.634 209.794 168.537 209.687 168.399 209.674C168.275 209.655 168.143 209.744 168.116 209.864L159.749 248.402C159.721 248.522 159.797 248.642 159.928 248.673L167.812 250.854C167.812 250.854 167.86 250.867 167.888 250.867H167.895ZM168.088 212.456L167.639 250.311L160.308 248.281L168.088 212.456Z" fill="#4291DC"/>
</g>
<g opacity="0.3">
<path d="M167.895 250.867C167.964 250.867 168.026 250.842 168.081 250.798L193.452 227.59C193.507 227.54 193.534 227.476 193.528 227.407C193.528 227.337 193.486 227.274 193.424 227.236L168.537 209.725C168.461 209.674 168.358 209.661 168.268 209.699C168.178 209.737 168.123 209.82 168.123 209.908L167.64 250.557C167.64 250.557 167.626 250.608 167.626 250.633C167.626 250.766 167.729 250.88 167.888 250.873L167.895 250.867ZM192.872 227.445L168.157 250.052L168.627 210.388L192.872 227.451V227.445Z" fill="#4291DC"/>
</g>
<g opacity="0.3">
<path d="M168.379 210.142C168.427 210.142 168.475 210.129 168.517 210.11L243.875 168.096C243.971 168.045 244.02 167.938 243.992 167.843C243.964 167.742 243.875 167.672 243.764 167.659L137.472 158.411C137.375 158.398 137.286 158.442 137.23 158.518C137.175 158.594 137.175 158.682 137.223 158.765L168.151 210.022C168.185 210.079 168.241 210.123 168.31 210.136C168.33 210.136 168.351 210.142 168.379 210.142ZM242.943 168.064L168.475 209.573L137.914 158.923L242.943 168.064Z" fill="#4291DC"/>
</g>
<g opacity="0.3">
<path d="M193.266 227.66C193.342 227.66 193.418 227.628 193.473 227.571L243.944 168.039C244.02 167.95 244.013 167.824 243.93 167.735C243.847 167.647 243.709 167.634 243.606 167.691L168.248 209.699C168.172 209.737 168.13 209.813 168.123 209.889C168.123 209.965 168.158 210.041 168.227 210.091L193.114 227.603C193.162 227.634 193.217 227.653 193.273 227.653L193.266 227.66ZM242.674 168.766L193.224 227.084L168.841 209.927L242.674 168.766Z" fill="#4291DC"/>
</g>
<g opacity="0.3">
<path d="M-29.9091 245.051C-29.8124 245.051 -29.7227 245 -29.6744 244.918L48.8039 96.8297C48.8385 96.7665 48.8385 96.6969 48.8039 96.6337C48.7694 96.5705 48.7211 96.5199 48.6521 96.501L-45.7249 66.7062C-45.8077 66.681 -45.8975 66.6936 -45.9665 66.7442C-46.0355 66.7948 -46.0701 66.8706 -46.0632 66.9528L-30.1714 244.842C-30.1645 244.95 -30.0748 245.038 -29.9643 245.057C-29.9505 245.057 -29.9298 245.057 -29.916 245.057L-29.9091 245.051ZM48.2103 96.8613L-29.7296 243.932L-45.5178 67.2689L48.2103 96.8613Z" fill="#4291DC"/>
</g>
<g opacity="0.3">
<path d="M243.736 168.134C243.736 168.134 243.805 168.134 243.833 168.115C243.95 168.07 244.013 167.963 243.985 167.849L221.846 66.4282C221.818 66.3018 221.687 66.2196 221.549 66.2386L173.991 73.515C173.901 73.5276 173.832 73.5845 173.798 73.654C173.763 73.7299 173.77 73.8121 173.818 73.8816L243.522 168.026C243.571 168.096 243.654 168.127 243.736 168.127V168.134ZM221.39 66.7506L243.232 166.793L174.481 73.9259L221.397 66.7506H221.39Z" fill="#4291DC"/>
</g>
<g opacity="0.3">
<path d="M243.737 168.133C243.827 168.133 243.91 168.089 243.958 168.02C244.006 167.944 244.006 167.843 243.951 167.767L174.254 73.6223C174.199 73.5465 174.109 73.5086 174.012 73.5212C173.916 73.5275 173.833 73.5907 173.798 73.6666L137.203 158.562C137.176 158.632 137.182 158.708 137.224 158.771C137.265 158.834 137.341 158.878 137.417 158.885L243.716 168.133C243.716 168.133 243.73 168.133 243.744 168.133H243.737ZM174.102 74.2545L243.219 167.609L137.818 158.442L174.109 74.2545H174.102Z" fill="#4291DC"/>
</g>
<g opacity="0.3">
<path d="M32.1804 78.7494C32.2978 78.7494 32.4082 78.6736 32.4289 78.5661C32.4634 78.446 32.3806 78.3196 32.2494 78.288L-45.435 56.8949C-45.511 56.8696 -45.5938 56.8886 -45.6628 56.9265C-45.725 56.9708 -45.7664 57.0403 -45.7733 57.1099L-46.0701 66.915C-46.0701 67.0351 -45.9804 67.1363 -45.8492 67.1552L32.1321 78.7431C32.1321 78.7431 32.1597 78.7431 32.1735 78.7431L32.1804 78.7494ZM-45.2555 57.4386L28.3352 77.7064L-45.5317 66.7317L-45.2486 57.4386H-45.2555Z" fill="#4291DC"/>
</g>
<g opacity="0.3">
<path d="M48.5696 96.9624C48.6524 96.9624 48.7352 96.9245 48.7836 96.8613C48.8526 96.7728 48.8457 96.659 48.7698 96.5768L32.3741 78.3636C32.3327 78.3194 32.2774 78.2878 32.2153 78.2815L-45.766 66.6936C-45.8971 66.6746 -46.0283 66.7505 -46.0559 66.8706C-46.0904 66.9907 -46.0145 67.1108 -45.8903 67.1551L48.4867 96.9498C48.4867 96.9498 48.5419 96.9624 48.5696 96.9624ZM32.0358 78.7303L47.7825 96.2228L-42.8734 67.5976L32.0358 78.724V78.7303Z" fill="#4291DC"/>
</g>
<g opacity="0.3">
<path d="M48.5694 96.9626C48.5694 96.9626 48.6039 96.9626 48.6177 96.9626C48.7074 96.9436 48.7903 96.8867 48.8179 96.7982L55.4176 77.4598C55.4452 77.3839 55.4245 77.3017 55.3761 77.2448C55.3278 77.1816 55.245 77.15 55.1552 77.1563L32.1599 78.2816C32.0632 78.2816 31.9735 78.3385 31.939 78.4207C31.8976 78.5029 31.9114 78.5977 31.9735 78.6672L48.3692 96.8804C48.4175 96.9373 48.4934 96.9689 48.5694 96.9689V96.9626ZM54.817 77.6431L48.4658 96.2419L32.6984 78.7304L54.8101 77.6494L54.817 77.6431Z" fill="#4291DC"/>
</g>
<g opacity="0.3">
<path d="M174.039 73.9891C174.095 73.9891 174.157 73.9702 174.198 73.9385L220.858 39.7059C220.948 39.6364 220.983 39.5226 220.934 39.4278C220.886 39.333 220.776 39.2697 220.665 39.2824L156.601 46.8875C156.518 46.9002 156.442 46.9444 156.401 47.0203C156.36 47.0898 156.367 47.1783 156.415 47.2479L173.818 73.8753C173.86 73.9322 173.922 73.9765 173.998 73.9891C174.012 73.9891 174.026 73.9891 174.046 73.9891H174.039ZM219.816 39.864L174.108 73.4012L157.057 47.3174L219.816 39.864Z" fill="#4291DC"/>
</g>
<g opacity="0.3">
<path d="M174.039 73.9891C174.039 73.9891 174.067 73.9891 174.081 73.9891L221.638 66.7127C221.763 66.6938 221.859 66.5926 221.852 66.4725L220.955 39.51C220.955 39.4215 220.893 39.3393 220.803 39.3013C220.713 39.2634 220.61 39.2761 220.534 39.3329L173.915 73.534C173.825 73.5719 173.763 73.6541 173.763 73.7489C173.763 73.8817 173.874 73.9891 174.025 73.9891H174.039ZM221.328 66.2765L174.971 73.3633L220.451 39.9967L221.328 66.2765Z" fill="#4291DC"/>
</g>
<g opacity="0.3">
<path d="M131.631 88.0488C131.631 88.0488 131.694 88.0488 131.721 88.0362L174.136 73.9765C174.212 73.9512 174.267 73.9006 174.295 73.8311C174.322 73.7615 174.315 73.692 174.274 73.6288L156.87 47.0013C156.822 46.9317 156.725 46.8812 156.643 46.8875C156.553 46.8875 156.463 46.9381 156.422 47.0076L131.417 87.6948C131.362 87.7833 131.376 87.8908 131.445 87.9666C131.493 88.0235 131.569 88.0488 131.645 88.0488H131.631ZM173.66 73.6288L132.198 87.3724L156.643 47.5955L173.66 73.6288Z" fill="#4291DC"/>
</g>
<g opacity="0.3">
<path d="M88.8098 130.462C88.8788 130.462 88.9478 130.436 89.0031 130.386L131.825 87.9728C131.887 87.9096 131.908 87.8148 131.88 87.7326C131.846 87.6504 131.77 87.5872 131.673 87.5745L55.2176 77.1499C55.1141 77.1372 55.0174 77.1751 54.9622 77.251C54.907 77.3269 54.9001 77.428 54.9553 77.5039L88.5889 130.342C88.6303 130.405 88.6993 130.449 88.7822 130.455C88.7891 130.455 88.8029 130.455 88.8098 130.455V130.462ZM131.107 87.9791L88.8581 129.83L55.6732 77.6935L131.107 87.9791Z" fill="#4291DC"/>
</g>
<g opacity="0.3">
<path d="M137.452 158.885C137.5 158.885 137.541 158.872 137.583 158.853C137.666 158.809 137.714 158.72 137.707 158.632L131.888 87.7896C131.881 87.6948 131.812 87.6126 131.715 87.581C131.618 87.5494 131.508 87.581 131.439 87.6442L88.6167 130.057C88.5615 130.108 88.5408 130.177 88.5477 130.247C88.5546 130.316 88.6029 130.38 88.6651 130.418L137.307 158.84C137.348 158.866 137.396 158.878 137.445 158.878L137.452 158.885ZM131.418 88.3712L137.155 158.196L89.2104 130.177L131.418 88.3712Z" fill="#4291DC"/>
</g>
<g opacity="0.3">
<path d="M137.452 158.885C137.555 158.885 137.652 158.828 137.693 158.733L174.289 73.8372C174.323 73.7486 174.302 73.6538 174.233 73.5843C174.164 73.5147 174.054 73.4958 173.957 73.5274L131.542 87.5871C131.432 87.625 131.363 87.7199 131.37 87.8273L137.189 158.67C137.196 158.777 137.286 158.872 137.41 158.885C137.424 158.885 137.438 158.885 137.452 158.885ZM173.591 74.1532L137.624 157.601L131.908 87.9727L173.598 74.1532H173.591Z" fill="#4291DC"/>
</g>
</g>
</svg>
