<svg width="224" height="565" viewBox="0 0 224 565" fill="none" xmlns="http://www.w3.org/2000/svg">
<g opacity="0.5">
<g opacity="0.8">
<path d="M184.935 273.973C184.878 273.998 184.813 274.005 184.745 274.003L164.07 272.745C163.92 272.738 163.8 272.645 163.757 272.519C163.704 272.397 163.75 272.243 163.851 272.137L181.856 254.794C181.961 254.697 182.111 254.653 182.249 254.686C182.388 254.719 182.482 254.833 182.503 254.959L185.164 273.564C185.177 273.672 185.138 273.792 185.058 273.868C185.018 273.906 184.975 273.935 184.927 273.955L184.935 273.973ZM164.962 272.07L184.343 273.258L181.845 255.812L164.962 272.07Z" fill="#4291DC"/>
<path d="M164.259 272.715C164.145 272.764 164.009 272.762 163.904 272.703C163.757 272.623 163.691 272.445 163.756 272.282L178.552 235.176C178.617 235.013 178.777 234.913 178.95 234.921C179.123 234.929 179.263 235.044 179.289 235.208L182.497 254.972C182.513 255.088 182.475 255.208 182.385 255.288L164.381 272.631C164.381 272.631 164.307 272.695 164.259 272.715ZM178.747 236.693L165.087 270.951L181.715 254.938L178.747 236.693Z" fill="#4291DC"/>
<path d="M182.273 255.368C182.273 255.368 182.178 255.409 182.12 255.403C181.932 255.413 181.778 255.293 181.748 255.12L178.541 235.356C178.533 235.287 178.539 235.223 178.568 235.159L192.699 204.778C192.783 204.607 192.979 204.512 193.167 204.555C193.355 204.597 193.462 204.768 193.431 204.957L182.517 255.097C182.492 255.222 182.401 255.323 182.287 255.372L182.273 255.368ZM179.317 235.299L182.194 252.995L191.965 208.113L179.321 235.308L179.317 235.299Z" fill="#4291DC"/>
<path d="M182.273 255.368C182.169 255.413 182.045 255.415 181.945 255.365C181.801 255.293 181.724 255.141 181.76 254.991L192.674 204.85C192.705 204.713 192.825 204.599 192.965 204.559L253.025 187.97C253.198 187.926 253.37 187.986 253.453 188.126C253.536 188.265 253.501 188.446 253.372 188.564L182.399 255.293C182.399 255.293 182.324 255.356 182.277 255.376L182.273 255.368ZM193.37 205.18L182.748 253.963L251.805 189.036L193.37 205.18Z" fill="#4291DC"/>
<path d="M253.247 188.639C253.247 188.639 253.209 188.655 253.19 188.663L193.13 205.252C193.018 205.28 192.91 205.265 192.819 205.211C192.728 205.158 192.677 205.066 192.665 204.958L190.704 184.582C190.691 184.474 190.733 184.363 190.822 184.283C190.912 184.203 191.016 184.158 191.134 184.169L253.086 187.954C253.257 187.932 253.414 188.008 253.478 188.156C253.557 188.339 253.45 188.561 253.26 188.643L253.247 188.639ZM193.387 204.438L250.928 188.547L191.503 184.918L193.387 204.438Z" fill="#4291DC"/>
<path d="M154.602 322.239C154.516 322.276 154.419 322.287 154.326 322.255C154.158 322.204 154.054 322.042 154.088 321.862L163.755 272.334C163.796 272.14 163.973 272.002 164.182 272.015L184.857 273.273C184.984 273.28 185.096 273.355 185.151 273.456C185.2 273.569 185.197 273.694 185.132 273.805L154.799 322.07C154.752 322.143 154.683 322.193 154.617 322.222L154.602 322.239ZM164.428 272.766L155.21 320.022L184.154 273.97L164.428 272.766Z" fill="#4291DC"/>
<path d="M197.75 348.063C197.636 348.113 197.5 348.11 197.392 348.043L154.234 322.222C154.065 322.12 154.02 321.912 154.127 321.742L184.46 273.476C184.55 273.344 184.707 273.265 184.865 273.29C185.022 273.315 185.145 273.417 185.168 273.572L197.983 347.663C198.011 347.806 197.938 347.951 197.807 348.039C197.788 348.047 197.76 348.059 197.741 348.067L197.75 348.063ZM154.972 321.789L197.082 346.989L184.578 274.686L154.972 321.789Z" fill="#4291DC"/>
<path d="M197.75 348.063C197.674 348.096 197.586 348.103 197.514 348.093C197.366 348.064 197.253 347.958 197.238 347.82L184.423 273.73C184.393 273.557 184.475 273.407 184.674 273.321L292.494 230.526C292.655 230.456 292.833 230.503 292.936 230.634C293.034 230.757 293.031 230.934 292.923 231.074L197.919 347.959C197.873 348.01 197.824 348.052 197.767 348.077L197.75 348.063ZM185.223 273.858L197.85 346.863L291.461 231.686L185.214 273.862L185.223 273.858Z" fill="#4291DC"/>
<path d="M292.773 231.17C292.773 231.17 292.763 231.174 292.754 231.178L292.744 231.182L184.925 273.977C184.821 274.022 184.694 274.015 184.593 273.966C184.493 273.916 184.428 273.82 184.416 273.712L181.754 255.107C181.726 254.912 181.871 254.726 182.067 254.682L292.515 230.496C292.709 230.423 292.912 230.5 292.987 230.674C293.062 230.848 292.969 231.075 292.769 231.161L292.773 231.17ZM185.106 273.144L288.408 232.14L182.556 255.318L185.106 273.144Z" fill="#4291DC"/>
<path d="M292.753 231.178C292.753 231.178 292.706 231.199 292.677 231.211L182.187 255.405C182.024 255.445 181.857 255.372 181.784 255.228C181.714 255.093 181.739 254.917 181.869 254.799L252.842 188.07C252.922 187.994 253.021 187.961 253.131 187.955C253.231 187.953 253.328 187.994 253.404 188.064L292.845 230.529C292.905 230.565 292.964 230.622 292.994 230.692C293.073 230.874 292.998 231.093 292.776 231.179L292.753 231.178ZM183.318 254.419L291.89 230.643L253.063 188.842L183.318 254.419Z" fill="#4291DC"/>
<path d="M197.75 348.063C197.598 348.129 197.418 348.104 197.31 347.985C197.189 347.862 197.197 347.672 197.306 347.532L292.31 230.647C292.413 230.52 292.582 230.467 292.734 230.505L370.689 249.961C370.841 249.998 370.935 250.112 370.954 250.259C370.968 250.398 370.886 250.547 370.747 250.617L197.779 348.051C197.779 348.051 197.75 348.063 197.741 348.067L197.75 348.063ZM292.746 231.264L199.08 346.496L369.6 250.442L292.746 231.264Z" fill="#4291DC"/>
<path d="M164.259 272.715C164.193 272.744 164.118 272.755 164.046 272.745C163.866 272.72 163.738 272.579 163.74 272.402L164.43 225.128C164.438 224.991 164.518 224.863 164.657 224.792C164.8 224.731 164.95 224.738 165.065 224.822L179.162 234.994C179.291 235.083 179.34 235.248 179.277 235.389L164.48 272.495C164.444 272.594 164.364 272.67 164.259 272.715ZM165.185 225.856L164.531 270.345L178.457 235.424L165.185 225.856Z" fill="#4291DC"/>
<path d="M179.056 235.609C179.056 235.609 179.018 235.625 178.999 235.633C178.877 235.665 178.756 235.645 178.671 235.579L164.574 225.407C164.479 225.345 164.43 225.232 164.44 225.124C164.446 225.008 164.505 224.91 164.608 224.834L192.832 204.617C192.969 204.516 193.161 204.516 193.29 204.605C193.422 204.702 193.462 204.871 193.393 205.025L179.261 235.406C179.221 235.496 179.151 235.567 179.056 235.609ZM165.446 225.102L178.768 234.71L192.122 205.999L165.446 225.102Z" fill="#4291DC"/>
<path d="M164.959 225.437C164.826 225.494 164.663 225.482 164.553 225.385C164.426 225.275 164.402 225.089 164.494 224.935L190.761 184.351C190.851 184.219 191.018 184.136 191.179 184.17C191.337 184.195 191.458 184.318 191.467 184.469L193.428 204.845C193.439 204.974 193.381 205.102 193.269 205.182L165.045 225.4C165.045 225.4 164.991 225.433 164.963 225.445L164.959 225.437ZM190.799 185.636L166.156 223.72L192.642 204.751L190.799 185.636Z" fill="#4291DC"/>
<path d="M253.247 188.639C253.19 188.663 253.125 188.671 253.057 188.669L191.036 184.883C190.896 184.871 190.771 184.791 190.728 184.665C190.675 184.543 190.702 184.397 190.803 184.291L230.344 140.77C230.426 140.673 230.563 140.624 230.69 140.631C230.821 140.647 230.929 140.714 230.978 140.827L253.457 188.134C253.51 188.256 253.498 188.385 253.41 188.496C253.368 188.555 253.309 188.601 253.243 188.63L253.247 188.639ZM191.864 184.214L252.492 187.912L230.518 141.667L191.874 184.21L191.864 184.214Z" fill="#4291DC"/>
<path d="M191.226 184.852C191.15 184.885 191.063 184.892 190.978 184.877C190.839 184.844 190.729 184.747 190.705 184.613L184.704 154.123C184.667 153.933 184.789 153.746 184.99 153.69L230.519 140.653C230.679 140.605 230.851 140.664 230.94 140.791C231.029 140.918 231.004 141.095 230.901 141.222L191.36 184.743C191.323 184.789 191.27 184.823 191.213 184.847L191.226 184.852ZM185.529 154.283L191.315 183.728L229.502 141.693L185.529 154.283Z" fill="#4291DC"/>
<path d="M230.768 141.331C230.768 141.331 230.73 141.348 230.72 141.352L185.191 154.388C185 154.44 184.802 154.35 184.74 154.18L181.799 146.371C181.754 146.266 181.779 146.142 181.842 146.053C181.911 145.951 182.021 145.892 182.137 145.873L230.565 140.654C230.747 140.606 230.937 140.679 231.009 140.845C231.088 141.027 230.99 141.245 230.791 141.332C230.791 141.332 230.781 141.336 230.772 141.34L230.768 141.331ZM185.346 153.598L226.53 141.812L182.687 146.544L185.34 153.611L185.346 153.598Z" fill="#4291DC"/>
<path d="M230.767 141.331C230.767 141.331 230.691 141.364 230.645 141.363L182.175 146.59C182.023 146.604 181.879 146.532 181.813 146.406C181.757 146.275 181.78 146.121 181.877 146.006L208.421 117.371C208.497 117.287 208.602 117.241 208.716 117.244C208.826 117.237 208.932 117.274 209.002 117.357L230.858 140.682C230.919 140.718 230.978 140.775 231.008 140.845C231.087 141.028 230.995 141.233 230.79 141.332L230.767 141.331ZM183.072 145.768L229.837 140.721L208.675 118.14L183.068 145.759L183.072 145.768Z" fill="#4291DC"/>
<path d="M293.138 166.987C293.034 167.032 292.923 167.038 292.827 166.997L230.447 141.346C230.35 141.305 230.284 141.231 230.256 141.14C230.218 141.053 230.237 140.941 230.291 140.856L277.066 58.9457C277.152 58.8052 277.309 58.7265 277.473 58.7386C277.64 58.7593 277.757 58.8738 277.779 59.0295L293.388 166.599C293.408 166.725 293.345 166.866 293.233 166.945C293.205 166.958 293.18 166.979 293.151 166.991L293.138 166.987ZM231.152 140.813L292.521 166.055L277.168 60.2241L231.152 140.813Z" fill="#4291DC"/>
<path d="M230.767 141.331C230.767 141.331 230.701 141.36 230.655 141.359C230.53 141.383 230.41 141.341 230.327 141.253L208.391 117.849C208.259 117.7 208.275 117.476 208.442 117.341L277.153 58.8355C277.292 58.7134 277.503 58.7048 277.645 58.7983C277.791 58.9005 277.828 59.091 277.737 59.2444L230.961 141.154C230.917 141.235 230.853 141.294 230.767 141.331ZM209.235 117.608L230.564 140.366L276.056 60.7056L209.235 117.608Z" fill="#4291DC"/>
<path d="M410.28 343.624C410.233 343.644 410.181 343.656 410.126 343.659L197.602 348.086C197.433 348.087 197.287 347.985 197.242 347.829C197.206 347.669 197.281 347.502 197.435 347.415L370.403 249.981C370.504 249.927 370.611 249.912 370.713 249.94C370.815 249.968 370.891 250.038 370.933 250.134L410.498 343.137C410.547 343.25 410.522 343.374 410.453 343.476C410.411 343.536 410.352 343.582 410.286 343.611L410.28 343.624ZM199.026 347.336L409.557 342.945L370.369 250.812L199.026 347.336Z" fill="#4291DC"/>
<path d="M197.75 348.063C197.75 348.063 197.693 348.088 197.661 348.092L185.647 350.42C185.522 350.444 185.406 350.411 185.317 350.336L154.186 322.191C154.052 322.064 154.043 321.861 154.167 321.704C154.295 321.555 154.513 321.513 154.678 321.607L197.826 347.431C197.951 347.511 198.015 347.659 197.984 347.797C197.956 347.912 197.864 348.014 197.75 348.063ZM185.729 349.672L196.6 347.569L157.596 324.229L185.743 349.676L185.729 349.672Z" fill="#4291DC"/>
</g>
<g opacity="0.3">
<path d="M328.945 300.304C328.945 300.304 328.935 300.309 328.926 300.313L241.347 334.004C241.195 334.069 241.016 334.023 240.909 333.904C240.81 333.781 240.803 333.608 240.906 333.481L290.924 265.368C290.987 265.278 291.097 265.22 291.213 265.201C291.329 265.182 291.435 265.219 291.51 265.289L329.082 299.708C329.174 299.792 329.204 299.913 329.179 300.038C329.15 300.153 329.059 300.255 328.945 300.304ZM242.242 332.892L328.109 299.86L291.267 266.108L242.229 332.888L242.242 332.892Z" fill="#4291DC"/>
</g>
<g opacity="0.3">
<path d="M303.152 447.592C303.057 447.633 302.957 447.635 302.864 447.603L229.044 422.999C228.924 422.958 228.837 422.861 228.82 422.744C228.804 422.627 228.838 422.499 228.937 422.415L285.123 370.086C285.218 369.993 285.368 369.949 285.497 369.986C285.622 370.014 285.723 370.115 285.753 370.237L303.383 447.161C303.417 447.291 303.364 447.428 303.255 447.516C303.221 447.542 303.187 447.567 303.149 447.583L303.152 447.592ZM229.892 422.508L302.485 446.703L285.148 371.056L229.895 422.516L229.892 422.508Z" fill="#4291DC"/>
</g>
<g opacity="0.3">
<path d="M229.332 422.988C229.227 423.033 229.117 423.039 229.017 422.99C228.876 422.927 228.793 422.787 228.807 422.636L240.832 333.648C240.853 333.514 240.95 333.4 241.083 333.342C241.216 333.285 241.374 333.31 241.48 333.398L285.631 370.062C285.703 370.124 285.754 370.215 285.744 370.323C285.744 370.426 285.694 370.52 285.624 370.592L229.438 422.921C229.438 422.921 229.364 422.984 229.316 423.005L229.332 422.988ZM241.507 334.399L229.706 421.689L284.814 370.364L241.498 334.403L241.507 334.399Z" fill="#4291DC"/>
</g>
<g opacity="0.3">
<path d="M254.268 478.759C254.173 478.8 254.072 478.802 253.97 478.774L205.216 461.949C205.11 461.912 205.034 461.841 205.002 461.741C204.961 461.646 204.98 461.534 205.043 461.445L228.865 422.508C228.939 422.393 229.074 422.314 229.22 422.313C229.366 422.312 229.491 422.392 229.544 422.514L254.435 478.18C254.435 478.18 254.484 478.242 254.499 478.277C254.578 478.459 254.503 478.678 254.281 478.764L254.268 478.759ZM205.928 461.403L253.421 477.793L229.137 423.475L205.932 461.411L205.928 461.403Z" fill="#4291DC"/>
</g>
<g opacity="0.3">
<path d="M229.332 422.988C229.265 423.016 229.191 423.028 229.123 423.026L100.351 410.103C100.188 410.091 100.057 409.972 100.039 409.825C100.017 409.669 100.099 409.52 100.243 409.436L241.046 333.359C241.171 333.284 241.321 333.291 241.442 333.363C241.563 333.434 241.616 333.556 241.599 333.698L229.574 422.687C229.56 422.785 229.51 422.879 229.423 422.938C229.394 422.95 229.37 422.971 229.332 422.988ZM101.615 409.504L228.86 422.262L240.743 334.327L101.615 409.504Z" fill="#4291DC"/>
</g>
<g opacity="0.3">
<path d="M205.514 461.933C205.409 461.978 205.286 461.98 205.176 461.935L100.222 410.066C100.065 409.989 99.9987 409.811 100.06 409.64C100.121 409.468 100.304 409.369 100.48 409.385L229.248 422.3C229.375 422.307 229.477 422.387 229.532 422.487C229.577 422.592 229.575 422.717 229.51 422.828L205.689 461.764C205.641 461.837 205.576 461.896 205.5 461.929L205.514 461.933ZM102.404 410.309L205.228 461.117L228.566 422.967L102.404 410.309Z" fill="#4291DC"/>
</g>
<g opacity="0.3">
<path d="M100.564 410.073C100.564 410.073 100.469 410.114 100.42 410.104C100.232 410.113 100.082 410.002 100.052 409.829L70.0844 257.027C70.047 256.836 70.1786 256.645 70.38 256.589L140.181 238.262C140.312 238.226 140.441 238.263 140.53 238.338C140.623 238.422 140.662 238.539 140.637 238.664L100.794 409.797C100.769 409.922 100.674 410.015 100.56 410.064L100.564 410.073ZM70.9037 257.199L100.459 407.928L139.751 239.12L70.8942 257.203L70.9037 257.199Z" fill="#4291DC"/>
</g>
<g opacity="0.3">
<path d="M100.564 410.073C100.441 410.126 100.3 410.115 100.192 410.048C100.08 409.972 100.02 409.833 100.051 409.696L139.884 238.566C139.915 238.429 140.016 238.323 140.156 238.283C140.293 238.234 140.445 238.272 140.538 238.356L241.507 333.407C241.586 333.487 241.622 333.595 241.603 333.707C241.583 333.819 241.505 333.925 241.404 333.979L100.593 410.061C100.593 410.061 100.574 410.069 100.555 410.077L100.564 410.073ZM140.47 239.346L100.964 409.042L240.589 333.608L140.46 239.35L140.47 239.346Z" fill="#4291DC"/>
</g>
<g opacity="0.3">
<path d="M140.397 238.943C140.321 238.976 140.224 238.987 140.148 238.968L55.5178 219.654C55.3528 219.612 55.2374 219.476 55.2474 219.317C55.2575 219.157 55.3718 219.004 55.5314 218.956L148.25 191.245C148.371 191.213 148.502 191.228 148.604 191.308C148.703 191.379 148.746 191.505 148.721 191.63L140.633 238.655C140.61 238.758 140.551 238.856 140.454 238.919C140.435 238.927 140.416 238.935 140.388 238.947L140.397 238.943ZM57.0469 219.25L139.952 238.175L147.879 192.108L57.0469 219.25Z" fill="#4291DC"/>
</g>
<g opacity="0.3">
<path d="M140.397 238.944C140.397 238.944 140.359 238.96 140.34 238.968L70.5385 257.295C70.3562 257.343 70.1629 257.261 70.1008 257.092L55.2674 219.442C55.2147 219.32 55.2512 219.17 55.3521 219.065C55.4531 218.959 55.6031 218.915 55.7416 218.948L140.296 238.243C140.443 238.242 140.577 238.318 140.634 238.448C140.713 238.631 140.625 238.845 140.416 238.935L140.397 238.944ZM70.7062 256.509L138.741 238.638L56.2512 219.812L70.7062 256.509Z" fill="#4291DC"/>
</g>
<g opacity="0.3">
<path d="M207.151 233.024C207.151 233.024 207.066 233.061 207.02 233.06L140.256 238.984C140.136 238.994 140.03 238.957 139.951 238.878C139.871 238.799 139.839 238.699 139.859 238.587L147.946 191.562C147.971 191.438 148.074 191.31 148.192 191.27C148.316 191.216 148.469 191.232 148.568 191.303L207.235 232.409C207.364 232.498 207.409 232.654 207.359 232.799C207.326 232.906 207.237 232.987 207.132 233.032L207.151 233.024ZM140.705 238.221L205.969 232.43L148.614 192.244L140.705 238.221Z" fill="#4291DC"/>
</g>
<g opacity="0.3">
<path d="M291.374 265.886C291.279 265.927 291.169 265.933 291.063 265.896L206.84 233.034C206.717 232.984 206.632 232.866 206.621 232.736C206.62 232.603 206.686 232.47 206.812 232.395L305.842 172.481C305.977 172.402 306.133 172.396 306.254 172.468C306.376 172.539 306.445 172.674 306.415 172.812L291.606 265.589C291.587 265.7 291.518 265.802 291.408 265.861C291.399 265.865 291.38 265.873 291.37 265.877L291.374 265.886ZM207.832 232.615L290.931 265.044L305.539 173.501L207.832 232.615Z" fill="#4291DC"/>
</g>
<g opacity="0.3">
<path d="M241.356 333.999C241.29 334.028 241.225 334.035 241.157 334.034C241.016 334.022 240.897 333.929 240.854 333.803L206.645 232.819C206.598 232.684 206.644 232.53 206.758 232.429C206.873 232.328 207.043 232.305 207.176 232.351L291.399 265.214C291.505 265.25 291.575 265.334 291.607 265.433C291.639 265.533 291.61 265.649 291.547 265.738L241.529 333.852C241.487 333.911 241.428 333.958 241.362 333.986L241.356 333.999ZM207.638 233.34L241.354 332.874L290.653 265.733L207.638 233.34Z" fill="#4291DC"/>
</g>
<g opacity="0.3">
<path d="M241.357 333.999C241.214 334.061 241.047 334.04 240.934 333.934L139.965 238.883C139.864 238.782 139.836 238.639 139.89 238.502C139.943 238.365 140.084 238.273 140.236 238.259L207 232.335C207.175 232.321 207.326 232.411 207.381 232.563L241.59 333.547C241.644 333.699 241.577 333.883 241.414 333.975C241.395 333.983 241.376 333.991 241.357 333.999ZM141.113 238.902L240.354 332.336L206.726 233.084L141.103 238.906L141.113 238.902Z" fill="#4291DC"/>
</g>
</g>
</svg>
