<svg width="323" height="432" viewBox="0 0 323 432" fill="none" xmlns="http://www.w3.org/2000/svg">
<g opacity="0.5">
<g opacity="0.8">
<path d="M57.9912 205.053C58.0523 205.085 58.1035 205.136 58.1497 205.196L71.438 223.988C71.5358 224.123 71.5381 224.291 71.459 224.416C71.3901 224.546 71.2244 224.614 71.0626 224.6L43.5128 221.059C43.3559 221.035 43.2132 220.936 43.1455 220.793C43.0779 220.65 43.111 220.489 43.2055 220.384L57.4773 205.139C57.562 205.053 57.6926 205.003 57.814 205.019C57.8747 205.027 57.9305 205.045 57.9814 205.072L57.9912 205.053ZM70.2319 223.685L57.783 206.063L44.402 220.361L70.2319 223.685Z" fill="#4291DC"/>
<path d="M71.2796 223.845C71.4017 223.909 71.4943 224.029 71.5163 224.16C71.5491 224.344 71.4405 224.525 71.2545 224.582L28.8091 237.565C28.6231 237.621 28.4252 237.553 28.312 237.397C28.1987 237.242 28.201 237.041 28.3253 236.904L43.2208 220.38C43.3104 220.284 43.441 220.234 43.5726 220.256L71.1224 223.797C71.1224 223.797 71.2287 223.818 71.2796 223.845ZM29.989 236.341L69.1759 224.354L43.7354 221.081L29.989 236.341Z" fill="#4291DC"/>
<path d="M43.7194 220.298C43.7194 220.298 43.8212 220.352 43.8573 220.407C43.9958 220.563 43.9988 220.779 43.8695 220.925L28.974 237.449C28.9192 237.504 28.8592 237.544 28.7837 237.563L-7.37079 246.445C-7.57719 246.491 -7.79576 246.388 -7.88932 246.195C-7.98287 246.003 -7.91006 245.791 -7.72466 245.687L43.3151 220.275C43.4405 220.21 43.5921 220.219 43.7142 220.283L43.7194 220.298ZM28.3846 236.816L41.7182 222.017L-3.97033 244.762L28.3895 236.807L28.3846 236.816Z" fill="#4291DC"/>
<path d="M43.7195 220.298C43.8314 220.357 43.9187 220.463 43.9457 220.584C43.9834 220.759 43.905 220.932 43.7495 221.005L-7.29027 246.417C-7.43071 246.485 -7.61284 246.461 -7.74543 246.367L-63.8882 205.858C-64.0464 205.739 -64.1146 205.548 -64.0513 205.378C-63.988 205.209 -63.8075 205.114 -63.6152 205.144L43.5673 220.242C43.5673 220.242 43.6736 220.262 43.7245 220.289L43.7195 220.298ZM-7.48862 245.585L42.172 220.863L-62.1164 206.174L-7.48862 245.585Z" fill="#4291DC"/>
<path d="M120.911 197.773C121.003 197.821 121.08 197.898 121.117 198.001C121.19 198.182 121.122 198.385 120.941 198.48L71.2993 224.546C71.1038 224.646 70.8606 224.589 70.7267 224.399L57.4385 205.607C57.3561 205.492 57.3439 205.343 57.3928 205.226C57.4568 205.105 57.5667 205.02 57.7078 204.999L120.628 197.719C120.724 197.71 120.815 197.734 120.886 197.772L120.911 197.773ZM71.2063 223.663L118.567 198.787L58.5309 205.732L71.2063 223.663Z" fill="#4291DC"/>
<path d="M113.283 142.423C113.405 142.487 113.498 142.608 113.515 142.748L121.153 198.103C121.181 198.321 121.032 198.504 120.811 198.53L57.8906 205.81C57.714 205.824 57.5361 205.742 57.4482 205.589C57.3602 205.435 57.3628 205.257 57.4822 205.13L112.774 142.499C112.879 142.376 113.055 142.338 113.222 142.39C113.242 142.401 113.273 142.417 113.293 142.428L113.283 142.423ZM120.265 197.765L112.817 143.749L58.8572 204.867L120.265 197.765Z" fill="#4291DC"/>
<path d="M113.284 142.423C113.365 142.466 113.432 142.537 113.473 142.606C113.551 142.755 113.538 142.927 113.428 143.036L58.1364 205.666C58.0071 205.812 57.8207 205.845 57.6071 205.732L-54.4587 142.06C-54.6316 141.969 -54.715 141.782 -54.672 141.602C-54.634 141.432 -54.4791 141.311 -54.2822 141.308L113.075 142.349C113.151 142.353 113.222 142.367 113.283 142.399L113.284 142.423ZM57.6913 204.883L112.173 143.171L-52.7355 142.148L57.7014 204.888L57.6913 204.883Z" fill="#4291DC"/>
<path d="M-54.0949 141.371C-54.0949 141.371 -54.0848 141.376 -54.0746 141.381L-54.0644 141.387L58.0013 205.059C58.1133 205.118 58.1956 205.233 58.2226 205.354C58.2495 205.476 58.2108 205.598 58.1261 205.684L43.8543 220.929C43.705 221.089 43.4425 221.093 43.2689 220.954L-54.4994 142.063C-54.698 141.946 -54.7719 141.716 -54.6735 141.53C-54.575 141.344 -54.3135 141.267 -54.0999 141.38L-54.0949 141.371ZM57.1538 205.481L-50.2192 144.478L43.4791 220.088L57.1538 205.481Z" fill="#4291DC"/>
<path d="M-54.0743 141.382C-54.0743 141.382 -54.0234 141.409 -53.9929 141.425L43.8112 220.347C43.9592 220.461 44.0124 220.656 43.9389 220.819C43.8704 220.974 43.7001 221.074 43.5078 221.044L-63.6747 205.947C-63.7961 205.93 -63.8929 205.867 -63.975 205.776C-64.0469 205.691 -64.0787 205.579 -64.0702 205.464L-54.7003 141.754C-54.7115 141.677 -54.7026 141.586 -54.6633 141.512C-54.5599 141.316 -54.3187 141.229 -54.0897 141.362L-54.0743 141.382ZM42.171 220.052L-53.9376 142.503L-63.1596 205.218L42.171 220.052Z" fill="#4291DC"/>
<path d="M113.283 142.423C113.446 142.509 113.549 142.682 113.521 142.858C113.499 143.049 113.329 143.174 113.132 143.177L-54.2258 142.136C-54.4076 142.135 -54.5707 142.025 -54.6436 141.867L-91.9969 60.7836C-92.0697 60.626 -92.0366 60.4647 -91.9221 60.3465C-91.8125 60.2375 -91.6261 60.2049 -91.4686 60.2762L113.253 142.406C113.253 142.406 113.283 142.423 113.293 142.428L113.283 142.423ZM-53.9946 141.328L111 142.36L-90.8219 61.3923L-53.9946 141.328Z" fill="#4291DC"/>
<path d="M71.2798 223.845C71.351 223.882 71.4124 223.939 71.4538 224.008C71.5572 224.182 71.5247 224.391 71.3699 224.512L29.9236 256.79C29.7986 256.879 29.6322 256.898 29.4747 256.827C29.3221 256.746 29.2243 256.611 29.217 256.452L28.2281 237.163C28.2156 236.989 28.3246 236.832 28.4906 236.789L70.9359 223.806C71.0465 223.769 71.1679 223.786 71.2798 223.845ZM30.0288 255.63L69.0371 225.258L29.0909 237.475L30.0288 255.63Z" fill="#4291DC"/>
<path d="M28.8344 236.827C28.8344 236.827 28.8751 236.849 28.8954 236.86C29.0077 236.943 29.075 237.062 29.0766 237.182L30.0655 256.471C30.0773 256.597 30.0134 256.718 29.9133 256.784C29.8083 256.86 29.6823 256.877 29.5454 256.84L-7.60286 246.442C-7.78532 246.393 -7.91892 246.227 -7.93142 246.054C-7.93899 245.871 -7.8199 245.719 -7.63876 245.672L28.5157 236.79C28.6214 236.763 28.7326 236.774 28.8344 236.827ZM29.1945 255.928L28.2557 237.701L-5.91094 246.096L29.1945 255.928Z" fill="#4291DC"/>
<path d="M29.8231 256.117C29.9656 256.192 30.0686 256.342 30.0608 256.505C30.0533 256.692 29.9089 256.842 29.7123 256.869L-23.7242 262.331C-23.9008 262.345 -24.0888 262.257 -24.1719 262.094C-24.2599 261.94 -24.2372 261.75 -24.1126 261.637L-7.81937 245.768C-7.7147 245.668 -7.56376 245.629 -7.41673 245.671L29.7316 256.069C29.7316 256.069 29.7975 256.092 29.8281 256.108L29.8231 256.117ZM-22.6362 261.404L27.5024 256.274L-7.35457 246.514L-22.6362 261.404Z" fill="#4291DC"/>
<path d="M-38.3647 -38.6615C-38.3138 -38.6347 -38.2678 -38.5985 -38.2268 -38.553L113.407 142.535C113.525 142.681 113.538 142.879 113.434 143.026C113.319 143.169 113.123 143.22 112.94 143.147L-91.7809 61.0168C-91.8977 60.967 -91.9847 60.8853 -92.0316 60.7771C-92.0786 60.6689 -92.07 60.5543 -92.0159 60.4518L-38.9383 -38.5117C-38.8743 -38.6328 -38.7489 -38.6977 -38.6127 -38.7092C-38.532 -38.7142 -38.4509 -38.6952 -38.3797 -38.6576L-38.3647 -38.6615ZM111.766 141.824L-38.4504 -37.5629L-91.036 60.4689L111.766 141.824Z" fill="#4291DC"/>
<path d="M113.283 142.423C113.283 142.423 113.344 142.455 113.37 142.48L123.743 151.272C123.85 151.364 123.902 151.487 123.899 151.616L121.159 198.166C121.142 198.371 120.972 198.52 120.75 198.522C120.533 198.514 120.344 198.355 120.311 198.147L112.683 142.797C112.665 142.632 112.749 142.474 112.889 142.405C113.01 142.35 113.161 142.358 113.283 142.423ZM123.037 151.721L113.655 143.763L120.553 193.795L123.032 151.706L123.037 151.721Z" fill="#4291DC"/>
</g>
<g opacity="0.3">
<path d="M33.9984 -85.6499C33.9984 -85.6499 34.0594 -85.6177 34.085 -85.5922L96.0753 -32.3072C96.198 -32.1947 96.2558 -32.0331 96.2174 -31.8865L72.0664 51.1363C72.0133 51.3108 71.8532 51.4168 71.651 51.4054C71.464 51.39 71.2956 51.2653 71.2375 51.0797L33.4084 -85.2227C33.3556 -85.3937 33.434 -85.5667 33.5842 -85.6542C33.7096 -85.719 33.8661 -85.7198 33.9984 -85.6499ZM95.3183 -31.9086L34.5647 -84.1354L71.6441 49.4476L95.3081 -31.914L95.3183 -31.9086Z" fill="#4291DC"/>
</g>
<g opacity="0.3">
<path d="M126.232 -18.1306C126.344 -18.0715 126.421 -17.9712 126.453 -17.859C126.49 -17.7322 126.466 -17.6136 126.392 -17.5218L71.9929 51.2522C71.8738 51.4038 71.6572 51.4443 71.4639 51.3422C71.3011 51.2562 71.1819 51.0384 71.24 50.8545L95.391 -32.1682C95.4248 -32.2814 95.4993 -32.3732 95.6099 -32.4101C95.7254 -32.4564 95.8517 -32.4492 95.9636 -32.3901L126.206 -18.156C126.206 -18.156 126.217 -18.1507 126.227 -18.1453L126.232 -18.1306ZM72.6738 49.0023L125.395 -17.655L96.0826 -31.4574L72.6787 48.993L72.6738 49.0023Z" fill="#4291DC"/>
</g>
<g opacity="0.3">
<path d="M5.68552 -97.6497C5.8483 -97.5637 5.94681 -97.3807 5.92387 -97.214L-19.0973 62.3727C-19.1252 62.5486 -19.2699 62.6747 -19.4615 62.6927C-19.6483 62.7013 -19.8366 62.5899 -19.9046 62.4229L-109.365 -142.367C-109.428 -142.519 -109.405 -142.686 -109.285 -142.789C-109.175 -142.898 -108.994 -142.922 -108.842 -142.865L5.63991 -97.6619C5.63991 -97.6619 5.67045 -97.6458 5.69079 -97.635L5.68552 -97.6497ZM-19.725 60.8019L5.02702 -97.0681L-108.221 -141.775L-19.725 60.8019Z" fill="#4291DC"/>
</g>
<g opacity="0.3">
<path d="M33.9985 -85.6499C34.1918 -85.5478 34.2857 -85.3314 34.2126 -85.1437L-19.1267 62.4529C-19.1999 62.6407 -19.4105 62.7439 -19.6235 62.6791C-19.8365 62.6142 -19.9757 62.4096 -19.9482 62.2097L5.07302 -97.377C5.09663 -97.4956 5.16583 -97.602 5.27116 -97.6536C5.37649 -97.7052 5.51269 -97.7167 5.63969 -97.6616L33.9578 -85.6714C33.9578 -85.6714 33.9782 -85.6607 33.9985 -85.6499ZM-18.4114 57.9452L33.274 -85.0912L5.83969 -96.7099L-18.4114 57.9452Z" fill="#4291DC"/>
</g>
<g opacity="0.3">
<path d="M33.9985 -85.6497C34.1105 -85.5906 34.1925 -85.4996 34.2194 -85.3781L72.0485 50.9243C72.0804 51.0365 72.0617 51.1458 72.0023 51.2336C71.9429 51.3214 71.8428 51.3877 71.7217 51.3952L-19.4466 62.6893C-19.5979 62.7047 -19.7502 62.6482 -19.8477 62.5371C-19.9451 62.426 -19.9777 62.2658 -19.934 62.134L33.3613 -85.3547C33.3613 -85.3547 33.3698 -85.4694 33.3993 -85.5253C33.5027 -85.7209 33.7593 -85.788 33.973 -85.6751L33.9985 -85.6497ZM71.1208 50.6607L33.7701 -83.9115L-18.8882 61.8046L71.1257 50.6514L71.1208 50.6607Z" fill="#4291DC"/>
</g>
<g opacity="0.3">
<path d="M-19.3402 61.9467C-19.3402 61.9467 -19.33 61.952 -19.3198 61.9574L70.7811 114.421C70.9438 114.507 71.0272 114.694 70.9994 114.87C70.9613 115.04 70.8166 115.166 70.6348 115.166L-23.1741 119.191C-23.2952 119.198 -23.4222 119.143 -23.5193 119.056C-23.6165 118.969 -23.6585 118.851 -23.65 118.737L-19.9522 62.243C-19.944 62.1044 -19.8597 61.994 -19.7343 61.9291C-19.6139 61.8736 -19.4623 61.8822 -19.3402 61.9467ZM69.1954 114.417L-19.1441 62.9796L-22.7712 118.379L69.2007 114.432L69.1954 114.417Z" fill="#4291DC"/>
</g>
<g opacity="0.3">
<path d="M71.8329 50.6434C71.8329 50.6434 71.894 50.6756 71.9196 50.7011C72.0167 50.7881 72.0739 50.9017 72.0706 51.031L71.0032 114.789C71.0051 114.933 70.9159 115.052 70.7906 115.117C70.6652 115.182 70.5087 115.183 70.3712 115.098L-19.7298 62.6348C-19.8925 62.5488 -19.9707 62.3765 -19.9477 62.2099C-19.9248 62.0433 -19.7952 61.9211 -19.6137 61.8978L71.5547 50.6037C71.6505 50.5947 71.7466 50.6097 71.828 50.6527L71.8329 50.6434ZM70.1649 114.06L71.2079 51.4572L-18.3019 62.5429L70.1547 114.054L70.1649 114.06Z" fill="#4291DC"/>
</g>
<g opacity="0.3">
<path d="M-108.821 -142.854L-108.801 -142.843C-108.709 -142.795 -108.633 -142.719 -108.591 -142.625L-19.1305 62.1647C-19.0577 62.3224 -19.1006 62.5022 -19.2204 62.6058L-108.297 137.145C-108.417 137.249 -108.598 137.272 -108.751 137.192C-108.908 137.12 -109.007 136.961 -109.004 136.808L-109.391 -142.416C-109.418 -142.514 -109.414 -142.619 -109.365 -142.712C-109.261 -142.908 -109.005 -142.975 -108.791 -142.862L-108.821 -142.854ZM-20.0294 62.1666L-108.561 -140.489L-108.178 135.934L-20.0294 62.1666Z" fill="#4291DC"/>
</g>
<g opacity="0.3">
<path d="M-19.3408 61.9464C-19.1882 62.027 -19.09 62.1861 -19.0979 62.3488L-22.7957 118.842C-22.8085 119.014 -22.9279 119.142 -23.094 119.185L-108.473 137.231C-108.664 137.273 -108.862 137.18 -108.956 137.012C-109.049 136.844 -109.021 136.644 -108.882 136.527L-19.8048 61.9873C-19.685 61.8837 -19.4934 61.8658 -19.3408 61.9464ZM-23.6342 118.459L-20.0196 63.2561L-107.045 136.079L-23.6395 118.444L-23.6342 118.459Z" fill="#4291DC"/>
</g>
<g opacity="0.3">
<path d="M126.231 -18.131C126.333 -18.0772 126.405 -17.9916 126.442 -17.8887L156.458 63.1921C156.505 63.3243 156.482 63.4669 156.392 63.5626C156.302 63.6583 156.167 63.7178 156.025 63.6905L71.6053 51.393C71.4586 51.3751 71.3158 51.2759 71.2584 51.1383C71.196 51.0101 71.214 50.8527 71.2983 50.7424L125.697 -18.0316C125.787 -18.1513 125.943 -18.2001 126.094 -18.1675C126.14 -18.1553 126.186 -18.1431 126.226 -18.1216L126.231 -18.131ZM155.442 62.7988L125.925 -16.9345L72.4288 50.6961L155.447 62.7895L155.442 62.7988Z" fill="#4291DC"/>
</g>
<g opacity="0.3">
<path d="M173.92 -0.366413C174.103 -0.269687 174.196 -0.0772633 174.149 0.111928L156.481 63.419C156.433 63.5841 156.268 63.6995 156.091 63.6895C155.909 63.6888 155.741 63.5641 155.673 63.3972L125.657 -17.6837C125.605 -17.8306 125.638 -17.9918 125.753 -18.0861C125.862 -18.195 126.029 -18.2144 126.181 -18.1578L173.869 -0.393278C173.869 -0.393278 173.91 -0.371786 173.92 -0.366413ZM156.006 61.9288L173.226 0.208404L126.746 -17.1087L156.006 61.9288Z" fill="#4291DC"/>
</g>
<g opacity="0.3">
<path d="M156.248 62.9502C156.36 63.0093 156.442 63.1003 156.469 63.2217C156.511 63.3873 156.448 63.5564 156.308 63.6492L70.8306 115.115C70.7004 115.189 70.5336 115.184 70.3912 115.109C70.2488 115.034 70.1608 114.88 70.1637 114.727L71.2312 50.9691C71.2348 50.8637 71.2787 50.7559 71.3788 50.6896C71.4687 50.6179 71.5845 50.5957 71.6958 50.6068L156.116 62.9043C156.116 62.9043 156.222 62.9247 156.273 62.9516L156.248 62.9502ZM71.0122 114.007L154.862 63.529L72.0612 51.4671L71.0224 114.012L71.0122 114.007Z" fill="#4291DC"/>
</g>
<g opacity="0.3">
<path d="M187.235 2.55605C187.317 2.59904 187.388 2.66067 187.425 2.7395C187.482 2.85308 187.489 2.98778 187.43 3.09959L156.446 63.4842C156.353 63.6612 156.127 63.7443 155.913 63.6555C155.715 63.5867 155.591 63.3542 155.644 63.1557L173.311 -0.15136C173.364 -0.349867 173.569 -0.467763 173.787 -0.412246L187.103 2.51019C187.103 2.51019 187.184 2.52918 187.225 2.55067L187.235 2.55605ZM157.621 59.3144L186.426 3.17709L174.042 0.460923L157.621 59.3144Z" fill="#4291DC"/>
</g>
<g opacity="0.3">
<path d="M187.236 2.55609C187.337 2.60983 187.409 2.69544 187.456 2.80365L206.78 56.7531C206.822 56.8707 206.814 56.9853 206.75 57.0824C206.695 57.1849 206.585 57.2458 206.464 57.2534L156.157 63.6885C156.005 63.7039 155.843 63.6419 155.74 63.5162C155.637 63.3904 155.62 63.2263 155.689 63.0959L186.618 2.81378C186.618 2.81378 186.637 2.7285 186.657 2.69123C186.76 2.49559 187.001 2.40849 187.23 2.5414L187.236 2.55609ZM205.813 56.516L186.988 3.96214L156.806 62.7801L205.817 56.5067L205.813 56.516Z" fill="#4291DC"/>
</g>
<g opacity="0.3">
<path d="M156.247 62.95C156.319 62.9876 156.38 63.0439 156.426 63.1041L234.779 183.681C234.882 183.831 234.87 184.027 234.755 184.145C234.636 184.273 234.449 184.305 234.277 184.238L70.4317 115.13C70.2794 115.074 70.1816 114.939 70.1592 114.784C70.1369 114.629 70.2058 114.499 70.341 114.415L155.818 62.9497C155.913 62.8927 156.029 62.8705 156.141 62.9056C156.171 62.9217 156.207 62.9285 156.247 62.95ZM233.381 183.002L155.947 63.8638L71.4814 114.72L233.381 183.002Z" fill="#4291DC"/>
</g>
<g opacity="0.3">
<path d="M206.56 56.5059C206.672 56.565 206.759 56.6707 206.796 56.7976L234.837 183.819C234.88 184.008 234.771 184.189 234.58 184.255C234.39 184.321 234.176 184.232 234.068 184.068L155.71 63.5004C155.628 63.3854 155.626 63.2414 155.675 63.1242C155.734 63.0124 155.844 62.9275 155.985 62.9067L206.292 56.4715C206.388 56.4626 206.484 56.4776 206.565 56.5206L206.56 56.5059ZM233.531 181.759L206.051 57.3215L156.762 63.6272L233.531 181.759Z" fill="#4291DC"/>
</g>
<g opacity="0.3">
<path d="M-108.801 -142.843C-108.659 -142.768 -108.566 -142.624 -108.559 -142.465L-108.175 136.865C-108.173 136.985 -108.228 137.087 -108.328 137.153C-108.428 137.22 -108.538 137.257 -108.655 137.231L-270.933 107.677C-271.075 107.65 -271.197 107.561 -271.259 107.433C-271.322 107.305 -271.314 107.166 -271.24 107.05L-109.35 -142.74C-109.257 -142.893 -109.055 -142.954 -108.878 -142.896C-108.858 -142.885 -108.827 -142.869 -108.807 -142.858L-108.801 -142.843ZM-109.025 136.356L-109.408 -141.055L-270.19 107.009L-109.025 136.356Z" fill="#4291DC"/>
</g>
<g opacity="0.3">
<path d="M234.605 183.518C234.605 183.518 234.707 183.571 234.733 183.621C234.872 183.777 234.879 183.984 234.75 184.13L123.177 316.364C123.038 316.529 122.781 316.548 122.592 316.412L58.1685 268.67C58.0461 268.581 57.9886 268.444 57.9919 268.314C58.0001 268.176 58.0742 268.06 58.1996 267.995L234.206 183.509C234.332 183.444 234.478 183.462 234.6 183.527L234.605 183.518ZM122.756 315.534L232.819 185.1L59.2107 268.446L122.767 315.539L122.756 315.534Z" fill="#4291DC"/>
</g>
<g opacity="0.3">
<path d="M234.605 183.517C234.738 183.587 234.825 183.717 234.842 183.857C234.855 184.006 234.776 184.156 234.635 184.224L58.6387 268.715C58.4983 268.784 58.3365 268.77 58.2039 268.676C58.0664 268.592 57.9935 268.434 58.0017 268.296L70.1531 114.697C70.1666 114.573 70.2358 114.466 70.346 114.406C70.4563 114.345 70.6026 114.338 70.7195 114.388L234.575 183.501C234.575 183.501 234.595 183.512 234.616 183.523L234.605 183.517ZM58.907 267.666L233.434 183.888L70.9651 115.352L58.9172 267.671L58.907 267.666Z" fill="#4291DC"/>
</g>
<g opacity="0.3">
<path d="M58.6087 268.009C58.6901 268.052 58.7669 268.128 58.8033 268.207L100.921 354.977C100.999 355.149 100.962 355.344 100.817 355.446C100.672 355.548 100.46 355.555 100.307 355.451L11.8138 294.375C11.7016 294.292 11.6241 294.168 11.6221 294.024C11.6152 293.889 11.6943 293.764 11.8196 293.699L58.1945 268.004C58.2999 267.953 58.4259 267.936 58.5477 267.976C58.568 267.987 58.5883 267.998 58.6189 268.014L58.6087 268.009ZM99.5082 353.932L58.2528 268.929L12.8199 294.096L99.5082 353.932Z" fill="#4291DC"/>
</g>
<g opacity="0.3">
<path d="M58.6092 268.009C58.6092 268.009 58.6499 268.03 58.6703 268.041L123.094 315.784C123.262 315.908 123.326 316.132 123.222 316.304L100.912 355.341C100.843 355.471 100.687 355.544 100.526 355.53C100.364 355.516 100.221 355.417 100.153 355.274L58.0718 268.583C57.9691 268.457 57.9415 268.288 58.0153 268.148C58.1186 267.952 58.365 267.88 58.5889 267.998L58.6092 268.009ZM122.296 316.185L59.4955 269.657L100.548 354.231L122.296 316.185Z" fill="#4291DC"/>
</g>
<g opacity="0.3">
<path d="M7.05555 214.279C7.05555 214.279 7.14712 214.327 7.17797 214.367L58.7417 268.103C58.8339 268.199 58.876 268.317 58.8625 268.441C58.8491 268.565 58.7848 268.662 58.6745 268.723L12.2996 294.417C12.1742 294.482 11.9924 294.482 11.8753 294.408C11.743 294.338 11.6501 294.194 11.6432 294.059L6.46458 214.634C6.45209 214.46 6.5561 214.313 6.71689 214.255C6.8324 214.208 6.96398 214.23 7.0759 214.289L7.05555 214.279ZM57.7691 268.244L7.36327 215.716L12.4264 293.364L57.7691 268.244Z" fill="#4291DC"/>
</g>
<g opacity="0.3">
<path d="M-23.0383 118.44C-22.9365 118.494 -22.8545 118.585 -22.8125 118.703L7.28131 214.541C7.32366 214.682 7.28038 214.838 7.17571 214.938C7.06087 215.032 6.89974 215.066 6.74747 215.009L-114.042 170.859C-114.204 170.797 -114.317 170.666 -114.34 170.512C-114.362 170.357 -114.293 170.202 -114.153 170.133L-23.4573 118.445C-23.3471 118.385 -23.2109 118.373 -23.0839 118.428C-23.0737 118.434 -23.0534 118.444 -23.0432 118.45L-23.0383 118.44ZM6.22816 213.972L-23.4591 119.41L-112.947 170.413L6.22816 213.972Z" fill="#4291DC"/>
</g>
<g opacity="0.3">
<path d="M70.7707 114.416C70.8419 114.453 70.8931 114.504 70.9394 114.564C71.027 114.694 71.0293 114.862 70.9502 114.987L7.2302 214.859C7.14621 214.994 6.9805 215.061 6.81346 215.032C6.64643 215.004 6.50824 214.871 6.45571 214.724L-23.6381 118.886C-23.6801 118.769 -23.6565 118.65 -23.5922 118.553C-23.5279 118.456 -23.4074 118.4 -23.2864 118.393L70.5225 114.368C70.6033 114.363 70.6843 114.382 70.7555 114.42L70.7707 114.416ZM6.9911 213.637L69.7968 115.2L-22.6696 119.171L6.9911 213.637Z" fill="#4291DC"/>
</g>
<g opacity="0.3">
<path d="M70.7706 114.415C70.9232 114.496 71.0213 114.655 71.0086 114.827L58.8571 268.426C58.8391 268.583 58.7348 268.707 58.5789 268.755C58.4231 268.804 58.2455 268.746 58.1277 268.624L6.56396 214.888C6.4307 214.747 6.40278 214.553 6.49661 214.4L70.2167 114.528C70.3105 114.375 70.5166 114.305 70.7095 114.383C70.7299 114.394 70.7502 114.405 70.7706 114.415ZM58.0756 267.417L70.026 116.441L7.40334 214.605L58.0858 267.423L58.0756 267.417Z" fill="#4291DC"/>
</g>
</g>
</svg>
