<svg width="496" height="992" viewBox="0 0 496 992" fill="none" xmlns="http://www.w3.org/2000/svg">
<g opacity="0.5">
<g opacity="0.8">
<path d="M125.931 289.195C125.865 289.29 125.782 289.372 125.682 289.443L-270.568 546.597C-270.886 546.797 -271.281 546.774 -271.549 546.532C-271.803 546.271 -271.858 545.869 -271.669 545.523L-59.0143 158.998C-58.8871 158.778 -58.7039 158.625 -58.4777 158.558C-58.2515 158.491 -58.0259 158.536 -57.8356 158.668L125.773 288.02C125.997 288.177 126.096 288.441 126.086 288.714C126.076 288.876 126.019 289.032 125.927 289.164L125.931 289.195ZM-268.757 543.512L123.771 288.759L-58.1069 160.609L-268.757 543.512Z" fill="#4291DC"/>
<path d="M165.761 287.2C165.603 287.427 165.355 287.562 165.077 287.593L125.265 289.6C124.922 289.613 124.61 289.397 124.504 289.07C124.397 288.744 124.516 288.351 124.813 288.108L145.154 271.728C145.451 271.486 145.841 271.478 146.136 271.682L165.606 286.056C165.883 286.248 165.981 286.624 165.857 286.987C165.822 287.074 165.8 287.143 165.747 287.219L165.761 287.2ZM127.763 287.777L162.701 286.026L145.631 273.405L127.781 287.789L127.763 287.777Z" fill="#4291DC"/>
<path d="M146.289 272.827C146.289 272.827 146.184 272.978 146.097 273.03L125.756 289.41C125.416 289.678 124.96 289.669 124.701 289.377L0.548874 161.471C0.242201 161.174 0.266793 160.659 0.550932 160.324C0.848203 159.97 1.32623 159.91 1.65917 160.169L146.17 271.707C146.377 271.851 146.472 272.085 146.461 272.358C146.452 272.52 146.399 272.707 146.307 272.839L146.289 272.827ZM125.41 287.656L144.294 272.449L10.1266 168.885L125.392 287.644L125.41 287.656Z" fill="#4291DC"/>
<path d="M125.931 289.195C125.931 289.195 125.905 289.232 125.892 289.251C125.608 289.586 125.134 289.677 124.788 289.437L-58.8202 160.084C-59.1144 159.88 -59.2295 159.492 -59.0754 159.122C-58.9345 158.772 -58.6075 158.523 -58.2297 158.533L1.20898 159.968C1.41307 159.969 1.58194 160.059 1.72454 160.186L125.877 288.092C126.149 288.365 126.164 288.824 125.927 289.164L125.931 289.195ZM-55.5297 160.298L118.255 282.738L0.747935 161.665L-55.5124 160.31L-55.5297 160.298Z" fill="#4291DC"/>
<path d="M1.7796 161.289C1.60886 161.534 1.33014 161.677 1.04787 161.677L-58.3909 160.242C-58.6905 160.23 -58.9327 160.062 -59.0484 159.785C-59.1641 159.509 -59.0972 159.191 -58.9134 158.926L-26.4869 115.3C-26.3293 115.073 -26.0505 114.931 -25.7987 114.938C-25.5337 114.926 -25.2957 115.063 -25.1537 115.302L1.85854 160.363C2.01782 160.613 2.00288 160.967 1.83631 161.244C1.83631 161.244 1.81005 161.282 1.79692 161.301L1.7796 161.289ZM-56.7315 158.593L-0.39293 159.947L-25.9896 117.243L-56.7315 158.593Z" fill="#4291DC"/>
</g>
<g opacity="0.3">
<path d="M273.488 432.498C273.343 432.706 273.143 432.847 272.895 432.871L201.106 444.627C200.798 444.665 200.516 444.553 200.339 444.29C200.18 444.04 200.182 443.705 200.331 443.416L230.997 390.102C231.141 389.894 231.35 389.704 231.611 389.661C231.855 389.606 232.102 389.693 232.283 389.876L273.407 431.433C273.623 431.639 273.686 431.991 273.571 432.304C273.532 432.361 273.497 432.448 273.457 432.505L273.488 432.498ZM202.602 442.696L271.092 431.478L231.873 391.832L202.615 442.677L202.602 442.696Z" fill="#4291DC"/>
</g>
<g opacity="0.3">
<path d="M273.488 432.498C273.488 432.498 273.356 432.687 273.239 432.746L169.694 501.822C169.363 502.04 168.968 502.018 168.713 501.757C168.458 501.495 168.404 501.093 168.593 500.748L200.362 443.409C200.515 443.152 200.729 442.992 200.989 442.949L272.778 431.193C273.161 431.122 273.52 431.344 273.618 431.72C273.699 431.973 273.645 432.272 273.501 432.48L273.488 432.498ZM171.57 498.642L269.261 433.484L201.536 444.562L171.57 498.642Z" fill="#4291DC"/>
</g>
<g opacity="0.3">
<path d="M169.926 501.562C169.847 501.676 169.751 501.777 169.633 501.835L80.597 554.653C80.2353 554.878 79.7669 554.776 79.5515 554.459C79.332 554.11 79.3953 553.649 79.7314 553.351L200.537 443.194C200.842 442.902 201.281 442.899 201.579 443.134C201.878 443.37 201.953 443.815 201.752 444.179L169.983 501.518C169.983 501.518 169.943 501.574 169.93 501.593L169.926 501.562ZM86.5504 549.263L168.703 500.516L198.028 447.616L86.5635 549.244L86.5504 549.263Z" fill="#4291DC"/>
</g>
<g opacity="0.3">
<path d="M201.681 444.243C201.681 444.243 201.603 444.356 201.546 444.401L80.7406 554.557C80.4875 554.773 80.1527 554.849 79.871 554.737L-79.0995 486.674C-79.4331 486.527 -79.6048 486.183 -79.5331 485.784C-79.4573 485.417 -79.169 485.113 -78.7864 485.042L200.976 442.968C201.328 442.904 201.653 443.102 201.79 443.422C201.889 443.686 201.852 443.997 201.681 444.243ZM80.1328 552.957L198.538 445L-75.6447 486.245L80.1459 552.939L80.1328 552.957Z" fill="#4291DC"/>
</g>
<g opacity="0.3">
<path d="M45.2896 610.99C45.1452 611.198 44.9273 611.327 44.697 611.363C44.4362 611.406 44.2064 611.33 44.0423 611.16L-79.3114 486.499C-79.5835 486.226 -79.6115 485.786 -79.362 485.427C-79.1518 485.125 -78.6904 484.941 -78.3396 485.101L80.6309 553.164C80.8475 553.258 81.0116 553.428 81.0581 553.657C81.1219 553.897 81.0771 554.146 80.9326 554.354L45.3464 610.945C45.3464 610.945 45.3332 610.964 45.3201 610.983L45.2896 610.99ZM-75.0098 488.396L44.5483 609.214L79.0522 554.364L-74.9925 488.408L-75.0098 488.396Z" fill="#4291DC"/>
</g>
<g opacity="0.3">
<path d="M390.432 321.62C390.432 321.62 390.366 321.715 390.327 321.772L273.352 432.657C273.033 432.967 272.534 432.985 272.227 432.687L231.104 391.13C230.922 390.948 230.837 390.664 230.908 390.377C230.979 390.09 231.167 389.857 231.433 389.733L389.37 320.49C389.641 320.286 390.027 320.246 390.304 320.439C390.667 320.691 390.738 321.217 390.463 321.614C390.463 321.614 390.449 321.632 390.436 321.651L390.432 321.62ZM272.88 430.899L385.891 323.761L233.138 390.75L272.88 430.899Z" fill="#4291DC"/>
</g>
<g opacity="0.3">
<path d="M390.432 321.62C390.34 321.752 390.214 321.86 390.053 321.945L231.954 391.272C231.628 391.409 231.272 391.33 231.052 391.093C230.845 390.837 230.795 390.466 230.988 390.152L348.467 173.828C348.643 173.502 348.965 173.333 349.282 173.357C349.612 173.362 349.863 173.593 349.952 173.907L390.571 320.904C390.652 321.156 390.581 321.443 390.437 321.651L390.432 321.62ZM233.505 388.819L388.791 320.732L348.901 176.343L233.509 388.85L233.505 388.819Z" fill="#4291DC"/>
</g>
<g opacity="0.3">
<path d="M232.364 390.941C232.154 391.243 231.766 391.394 231.441 391.309L-79.3183 302.967C-79.6608 302.869 -79.8762 302.551 -79.8654 302.166C-79.8372 301.793 -79.5704 301.446 -79.2224 301.352L349.017 173.37C349.334 173.282 349.659 173.368 349.836 173.631C350.026 173.875 350.028 174.241 349.879 174.53L232.399 390.853C232.399 390.853 232.36 390.91 232.333 390.948L232.364 390.941ZM-76.0478 302.101L231.369 389.493L347.563 175.498L-76.0478 302.101Z" fill="#4291DC"/>
</g>
<g opacity="0.3">
<path d="M201.682 444.243C201.432 444.602 200.98 444.736 200.625 444.545L-79.4697 302.889C-79.8247 302.698 -79.9786 302.255 -79.7983 301.848C-79.618 301.441 -79.1781 301.214 -78.7878 301.317L231.972 389.659C232.201 389.735 232.396 389.898 232.473 390.12C232.55 390.341 232.54 390.614 232.399 390.853L201.734 444.167C201.734 444.167 201.708 444.205 201.682 444.243ZM-70.6941 305.402L200.748 442.669L230.462 391.02L-70.6941 305.402Z" fill="#4291DC"/>
</g>
<g opacity="0.3">
<path d="M201.681 444.243C201.537 444.451 201.336 444.592 201.088 444.616L-78.6743 486.69C-78.9046 486.726 -79.1171 486.663 -79.277 486.524C-79.4369 486.384 -79.5443 486.17 -79.5299 485.927L-79.8614 302.197C-79.8554 301.893 -79.7062 301.605 -79.4621 301.438C-79.2179 301.271 -78.8921 301.246 -78.6408 301.364L201.25 442.907C201.25 442.907 201.476 442.951 201.579 443.023C201.943 443.276 202.014 443.802 201.738 444.198L201.681 444.243ZM-77.9261 484.912L198.286 443.368L-78.2403 303.52L-77.9088 484.924L-77.9261 484.912Z" fill="#4291DC"/>
</g>
<g opacity="0.3">
<path d="M-78.0639 486.329C-78.0639 486.329 -78.1426 486.442 -78.1993 486.487C-78.3957 486.659 -78.635 486.745 -78.891 486.707L-205.208 469.139C-205.495 469.108 -205.71 468.902 -205.809 468.637C-205.907 468.373 -205.871 468.062 -205.67 467.809L-79.6842 301.647C-79.4741 301.345 -79.113 301.231 -78.7878 301.317C-78.4626 301.403 -78.2514 301.69 -78.2491 302.056L-77.9175 485.786C-77.9229 485.978 -77.9761 486.166 -78.0811 486.317L-78.0639 486.329ZM-203.558 467.651L-79.528 484.891L-79.8478 304.504L-203.545 467.633L-203.558 467.651Z" fill="#4291DC"/>
</g>
<g opacity="0.3">
<path d="M349.853 174.567L349.826 174.605C349.708 174.775 349.538 174.909 349.342 174.969L-78.8968 302.951C-79.2274 303.057 -79.5741 302.928 -79.7507 302.666L-206.148 107.763C-206.325 107.501 -206.327 107.135 -206.13 106.851C-205.95 106.556 -205.611 106.399 -205.307 106.442L349.121 173.33C349.321 173.301 349.53 173.333 349.703 173.454C350.066 173.706 350.137 174.232 349.861 174.629L349.853 174.567ZM-78.6827 301.166L345.093 174.51L-203.771 108.294L-78.6827 301.166Z" fill="#4291DC"/>
</g>
<g opacity="0.3">
<path d="M273.488 432.498C273.488 432.498 273.475 432.517 273.462 432.536L179.808 554.137C179.624 554.402 179.28 554.527 178.977 554.484C178.673 554.441 178.435 554.192 178.394 553.883L168.503 501.357C168.44 501.005 168.594 500.636 168.912 500.437L272.456 431.361C272.801 431.124 273.23 431.17 273.489 431.462C273.731 431.742 273.742 432.17 273.505 432.51L273.488 432.498ZM179.656 551.734L269.268 435.394L170.196 501.469L179.67 551.715L179.656 551.734Z" fill="#4291DC"/>
</g>
<g opacity="0.3">
<path d="M179.817 554.088C179.817 554.088 179.791 554.125 179.778 554.144C179.62 554.371 179.367 554.476 179.102 554.488L80.175 554.78C79.8146 554.782 79.4989 554.534 79.4489 554.163C79.3857 553.811 79.5529 553.423 79.9015 553.217L168.938 500.399C169.169 500.251 169.434 500.239 169.668 500.346C169.902 500.452 170.053 500.642 170.103 500.901L179.994 553.426C180.041 553.655 179.979 553.892 179.834 554.1L179.817 554.088ZM83.2548 553.081L178.17 552.802L168.675 502.402L83.2548 553.081Z" fill="#4291DC"/>
</g>
<g opacity="0.3">
<path d="M179.817 554.088C179.725 554.22 179.585 554.347 179.42 554.401L44.9059 611.284C44.5795 611.421 44.2065 611.33 43.9995 611.074C43.7924 610.818 43.786 610.421 43.9788 610.107L79.5651 553.516C79.7227 553.289 80.0104 553.097 80.2927 553.097L179.22 552.805C179.611 552.796 179.918 553.093 179.968 553.464C179.997 553.681 179.935 553.918 179.817 554.088ZM46.67 608.783L175.072 554.49L80.6438 554.77L46.67 608.783Z" fill="#4291DC"/>
</g>
<g opacity="0.3">
<path d="M45.2901 610.99C45.1588 611.179 44.9713 611.301 44.7583 611.349L-123.482 651.292C-123.756 651.354 -124.033 651.273 -124.201 651.072C-124.37 650.871 -124.455 650.588 -124.367 650.313L-79.4976 485.697C-79.4265 485.41 -79.1949 485.15 -78.9078 485.07C-78.6381 484.977 -78.3301 485.051 -78.1314 485.245L45.2223 609.906C45.4383 610.112 45.4973 610.433 45.3958 610.727C45.3606 610.814 45.3253 610.902 45.2728 610.978L45.2901 610.99ZM-122.455 649.372L42.9892 610.091L-78.3134 487.5L-122.438 649.384L-122.455 649.372Z" fill="#4291DC"/>
</g>
<g opacity="0.3">
<path d="M-1.53208 701.358C-1.76847 701.699 -2.17315 701.838 -2.53715 701.697L-123.938 651.283C-124.254 651.148 -124.443 650.792 -124.38 650.443C-124.335 650.083 -124.047 649.778 -123.699 649.684L44.5414 609.74C44.8458 609.672 45.1578 609.777 45.3171 610.027C45.5068 610.271 45.505 610.606 45.3557 610.895L-1.46642 701.264C-1.46642 701.264 -1.51894 701.34 -1.53208 701.358ZM-120.864 650.701L-2.50509 699.841L43.1361 611.762L-120.864 650.701Z" fill="#4291DC"/>
</g>
<g opacity="0.3">
<path d="M-10.5605 727.086C-10.6656 727.237 -10.8053 727.364 -10.9706 727.418C-11.2099 727.503 -11.479 727.485 -11.6867 727.34L-124.059 651.199C-124.388 650.97 -124.498 650.501 -124.27 650.099C-124.085 649.723 -123.594 649.532 -123.212 649.685L-1.81173 700.099C-1.43043 700.252 -1.24613 700.688 -1.40915 701.107L-10.4375 726.835C-10.4375 726.835 -10.4949 726.992 -10.5474 727.067L-10.5605 727.086ZM-116.065 654.541L-11.5973 725.329L-3.20429 701.401L-116.065 654.541Z" fill="#4291DC"/>
</g>
<g opacity="0.3">
<path d="M349.827 174.605C349.643 174.869 349.334 175.019 349.017 174.994L-205.62 108.074C-205.858 108.048 -206.049 107.916 -206.156 107.701C-206.264 107.487 -206.31 107.258 -206.231 107.033L-108.238 -207.971C-108.15 -208.246 -107.945 -208.468 -107.675 -208.561C-107.405 -208.653 -107.132 -208.604 -106.92 -208.428L349.755 173.49C350.036 173.713 350.108 174.127 349.949 174.465C349.923 174.503 349.884 174.56 349.857 174.598L349.827 174.605ZM-204.404 106.509L346.423 172.967L-107.092 -206.334L-204.404 106.509Z" fill="#4291DC"/>
</g>
<g opacity="0.3">
<path d="M390.432 321.621C390.314 321.791 390.144 321.925 389.931 321.973C389.522 322.081 389.115 321.854 389.013 321.447L348.394 174.45C348.305 174.136 348.411 173.762 348.695 173.538C348.961 173.303 349.33 173.251 349.603 173.413L379.481 189.612C379.702 189.737 379.857 189.957 379.878 190.223L390.618 321.021C390.63 321.225 390.581 321.444 390.463 321.614L390.432 321.621ZM350.514 175.868L388.242 312.476L378.263 190.922L350.497 175.856L350.514 175.868Z" fill="#4291DC"/>
</g>
</g>
</svg>
