<svg width="528" height="1039" viewBox="0 0 528 1039" fill="none" xmlns="http://www.w3.org/2000/svg">
<g opacity="0.5">
<g opacity="0.8">
<path d="M704.26 599.9C704.431 600.087 704.525 600.344 704.494 600.591C704.448 600.946 704.184 601.22 703.842 601.252L590.63 614.898C590.32 614.933 589.993 614.765 589.806 614.499L511.194 500.516C510.976 500.185 510.976 499.78 511.208 499.504C511.441 499.227 511.845 499.169 512.187 499.354L704.011 599.692C704.011 599.692 704.198 599.801 704.276 599.886L704.26 599.9ZM590.814 613.198L700.966 599.927L514.32 502.3L590.814 613.198Z" fill="#4291DC"/>
<path d="M512.436 499.563C512.436 499.563 512.498 499.631 512.529 499.665L591.141 613.647C591.281 613.862 591.328 614.1 591.282 614.33C591.236 614.56 591.081 614.734 590.863 614.84L549.52 633.812C549.303 633.918 549.038 633.91 548.805 633.781C548.572 633.652 548.401 633.465 548.338 633.21L511.116 500.4C510.945 500.058 510.991 499.672 511.255 499.429C511.58 499.13 512.125 499.193 512.436 499.532L512.436 499.563ZM589.245 613.701L513.935 504.497L549.642 631.888L589.245 613.701Z" fill="#4291DC"/>
<path d="M572.931 385.615C572.931 385.615 573.009 385.699 573.056 385.75L704.4 600.053C704.603 600.367 704.572 600.77 704.324 601.029C704.091 601.274 703.703 601.35 703.361 601.164L511.537 500.827C511.319 500.714 511.179 500.531 511.085 500.304C511.007 500.095 511.022 499.862 511.115 499.652L571.502 385.896C571.533 385.743 571.61 385.578 571.734 385.464C572.06 385.165 572.573 385.162 572.916 385.567L572.931 385.615ZM701.507 598.398L572.437 387.818L512.996 499.799L701.507 598.398Z" fill="#4291DC"/>
<path d="M572.931 385.614C573.118 385.817 573.211 386.106 573.165 386.367C573.119 386.629 572.933 386.862 572.668 386.948L437.636 432.942C437.31 433.055 436.937 432.929 436.688 432.626C436.454 432.341 436.422 431.932 436.608 431.637L507.833 322.331C507.957 322.123 508.175 322.017 508.424 322.007C508.672 321.998 508.905 322.096 509.092 322.268L572.9 385.58C572.9 385.58 572.915 385.597 572.931 385.614ZM439.389 430.552L570.833 385.76L508.722 324.139L439.389 430.552Z" fill="#4291DC"/>
<path d="M572.931 385.614L572.947 385.631C573.196 385.903 573.227 386.28 573.072 386.578L512.593 500.544C512.469 500.752 512.267 500.906 512.034 500.932C511.801 500.959 511.537 500.889 511.334 500.7L436.797 432.745C436.564 432.553 436.454 432.248 436.501 431.955C436.547 431.663 436.717 431.444 436.997 431.343L572.029 385.349C572.34 385.251 572.713 385.346 572.947 385.6L572.931 385.614ZM511.596 498.804L570.587 387.673L438.895 432.537L511.58 498.818L511.596 498.804Z" fill="#4291DC"/>
<path d="M887.564 499.828C887.813 500.099 887.891 500.496 887.721 500.809C887.55 501.153 887.146 501.274 886.773 501.148L572.14 386.934C571.798 386.811 571.565 386.494 571.533 386.148L555.538 208.318C555.507 207.972 555.677 207.691 555.973 207.545C556.252 207.413 556.625 207.477 556.874 207.716L887.517 499.777C887.517 499.777 887.564 499.828 887.579 499.845L887.564 499.828ZM573.117 385.568L883.303 498.179L557.344 210.253L573.117 385.568Z" fill="#4291DC"/>
<path d="M556.921 207.767C557.045 207.903 557.139 208.098 557.155 208.303L573.149 386.132C573.181 386.478 573.01 386.791 572.7 386.92C572.389 387.049 572.032 386.971 571.767 386.714L507.96 323.403C507.695 323.177 507.617 322.78 507.756 322.465L555.476 208.126C555.491 207.924 555.569 207.759 555.709 207.631C556.034 207.332 556.532 207.313 556.89 207.734L556.921 207.767ZM571.328 384.025L555.823 211.744L509.513 322.695L571.328 384.025Z" fill="#4291DC"/>
<path d="M521.445 166.583L556.921 207.768C557.155 208.022 557.218 208.371 557.078 208.655L509.281 323.19C509.126 323.551 508.706 323.718 508.333 323.592C507.929 323.463 507.664 323.081 507.71 322.664L520.047 166.93C520.062 166.604 520.279 166.342 520.606 166.261C520.901 166.177 521.227 166.284 521.461 166.538L521.445 166.583ZM555.384 208.399L521.558 169.105L509.786 317.634L555.399 208.385L555.384 208.399Z" fill="#4291DC"/>
<path d="M512.436 499.563C512.53 499.665 512.592 499.795 512.639 499.94L549.908 632.894C549.986 633.197 549.908 633.518 549.676 633.701C549.458 633.9 549.132 633.95 548.837 633.815L428.648 582.54C428.384 582.439 428.181 582.188 428.103 581.916C428.041 581.63 428.102 581.354 428.304 581.169L511.224 499.489C511.441 499.29 511.721 499.22 512.016 499.324C512.172 499.369 512.312 499.459 512.421 499.577L512.436 499.563ZM547.901 631.644L511.46 501.678L430.403 581.522L547.885 631.627L547.901 631.644Z" fill="#4291DC"/>
<path d="M549.705 632.518C549.829 632.653 549.907 632.831 549.938 633.021C549.97 633.336 549.846 633.637 549.582 633.786L489.954 668.613C489.581 668.83 489.099 668.71 488.835 668.328L428.274 582.258C428.056 581.958 428.056 581.553 428.257 581.274C428.459 580.995 428.847 580.919 429.189 581.043L549.378 632.318C549.502 632.36 549.611 632.447 549.705 632.549L549.705 632.518ZM489.687 666.764L547.281 633.15L431.198 583.635L489.687 666.764Z" fill="#4291DC"/>
<path d="M512.436 499.563C512.576 499.716 512.67 499.911 512.686 500.115C512.701 500.35 512.608 500.561 512.469 500.72L429.549 582.4C429.301 582.628 428.943 582.675 428.617 582.506C428.29 582.337 428.088 581.992 428.118 581.652L436.485 432C436.516 431.691 436.686 431.441 436.981 431.326C437.261 431.225 437.587 431.3 437.836 431.509L512.374 499.464C512.374 499.464 512.405 499.498 512.436 499.532L512.436 499.563ZM429.872 579.635L510.634 500.062L438.026 433.866L429.856 579.618L429.872 579.635Z" fill="#4291DC"/>
<path d="M429.516 581.242C429.516 581.242 429.578 581.31 429.594 581.327L490.154 667.397C490.404 667.762 490.358 668.242 490.047 668.496L475.797 680.364C475.611 680.535 475.331 680.573 475.098 680.506C474.834 680.436 474.632 680.247 474.507 680.018L428.243 582.161C428.009 581.814 428.024 581.362 428.319 581.092C428.645 580.792 429.173 580.838 429.5 581.194C429.5 581.194 429.516 581.211 429.531 581.228L429.516 581.242ZM488.383 667.649L433.615 589.787L475.515 678.374L488.414 667.652L488.383 667.649Z" fill="#4291DC"/>
<path d="M429.517 581.243C429.517 581.243 429.641 581.378 429.672 581.475L475.983 679.413C476.123 679.722 476.077 680.076 475.86 680.307C475.627 680.521 475.285 680.585 474.974 680.464L395.511 645.621C395.278 645.523 395.106 645.336 395.028 645.095C394.935 644.869 394.934 644.619 395.059 644.412L428.087 581.525C428.118 581.371 428.196 581.206 428.32 581.092C428.646 580.793 429.143 580.836 429.501 581.195L429.517 581.243ZM473.604 678.13L428.914 583.64L396.939 644.528L473.588 678.145L473.604 678.13Z" fill="#4291DC"/>
<path d="M437.899 431.608C438.07 431.795 438.163 432.021 438.148 432.254L429.781 581.905C429.766 582.138 429.658 582.331 429.487 582.457C429.332 582.599 429.083 582.64 428.865 582.59L222.816 544.119C222.458 544.041 222.178 543.767 222.084 543.416C222.006 543.05 222.161 542.72 222.471 542.56L436.904 431.366C437.152 431.232 437.494 431.261 437.743 431.439C437.79 431.49 437.852 431.526 437.899 431.577L437.899 431.608ZM428.148 580.812L436.394 433.584L225.425 542.972L428.148 580.812Z" fill="#4291DC"/>
<path d="M429.516 581.243C429.516 581.243 429.625 581.361 429.657 581.458C429.797 581.704 429.797 581.985 429.673 582.224L396.536 645.335C396.319 645.722 395.837 645.852 395.433 645.598L222.52 544.015C222.163 543.813 221.991 543.377 222.084 543.01C222.192 542.63 222.565 542.412 222.953 542.493L429.003 580.964C429.205 580.997 429.376 581.09 429.516 581.243ZM395.415 643.741L427.638 582.375L227.246 544.955L395.415 643.741Z" fill="#4291DC"/>
<path d="M266.11 257.164C266.297 257.368 266.375 257.64 266.345 257.887L223.716 543.51C223.67 543.896 223.344 544.164 222.955 544.146C222.567 544.128 222.209 543.832 222.115 543.449L156.113 280.012C156.003 279.581 156.267 279.151 156.671 279.062L265.302 256.876C265.566 256.821 265.861 256.925 266.064 257.114C266.064 257.114 266.095 257.148 266.11 257.164ZM222.668 539.129L264.512 258.757L157.885 280.54L222.668 539.129Z" fill="#4291DC"/>
<path d="M437.899 431.608C438.07 431.795 438.164 432.052 438.133 432.299C438.102 432.546 437.963 432.768 437.73 432.888L223.297 544.082C223.018 544.214 222.676 544.184 222.411 543.99C222.147 543.795 222.007 543.456 222.053 543.163L264.697 257.526C264.743 257.233 264.945 256.986 265.24 256.902C265.52 256.833 265.846 256.908 266.064 257.145L437.852 431.589L437.868 431.606L437.899 431.608ZM223.947 541.799L435.941 431.875L266.114 259.411L223.962 541.784L223.947 541.799Z" fill="#4291DC"/>
<path d="M571.323 150.082C571.526 150.302 571.604 150.605 571.542 150.881L557.139 208.566C557.062 208.856 556.845 209.055 556.55 209.108C556.254 209.16 555.959 209.025 555.741 208.788L520.265 167.603C520.078 167.4 520 167.097 520.062 166.852C520.108 166.591 520.294 166.389 520.558 166.303L570.437 149.802C570.717 149.702 571.059 149.794 571.292 150.017C571.292 150.017 571.323 150.051 571.339 150.068L571.323 150.082ZM555.893 206.586L569.539 151.908L522.27 167.543L555.893 206.586Z" fill="#4291DC"/>
<path d="M273.288 178.309C273.459 178.496 273.553 178.754 273.522 179.001L266.345 257.856C266.33 258.089 266.206 258.297 266.004 258.42C265.802 258.543 265.569 258.569 265.336 258.502L128.607 214.825C128.249 214.716 127.985 214.365 127.969 214.005C127.953 213.645 128.185 213.306 128.543 213.228L272.449 178.049C272.713 177.994 273.008 178.067 273.21 178.256C273.226 178.273 273.257 178.307 273.273 178.324L273.288 178.309ZM264.789 256.63L271.768 179.956L131.854 214.155L264.789 256.63Z" fill="#4291DC"/>
<path d="M266.111 257.165C266.251 257.317 266.345 257.544 266.36 257.748C266.361 258.123 266.128 258.43 265.771 258.508L157.14 280.694C156.736 280.784 156.316 280.544 156.16 280.156L128.062 214.294C127.937 214.002 127.984 213.679 128.17 213.445C128.371 213.229 128.682 213.131 128.993 213.251L265.722 256.928C265.878 256.973 266.017 257.063 266.126 257.182L266.111 257.165ZM157.355 278.934L262.257 257.517L130.224 215.339L157.339 278.948L157.355 278.934Z" fill="#4291DC"/>
<path d="M371.414 255.656C371.616 255.876 371.694 256.179 371.617 256.469C371.524 256.804 371.245 257.029 370.903 257.031L265.599 258.54C265.351 258.549 265.102 258.434 264.931 258.248C264.76 258.061 264.666 257.804 264.681 257.571L271.858 178.715C271.889 178.437 272.06 178.187 272.339 178.086C272.603 178 272.93 178.044 273.163 178.235L371.274 255.597C371.274 255.597 371.336 255.665 371.383 255.716L371.414 255.656ZM266.436 256.834L368.538 255.391L273.399 180.393L266.421 256.848L266.436 256.834Z" fill="#4291DC"/>
<path d="M521.445 166.583C521.616 166.77 521.694 167.01 521.695 167.26L509.358 322.994C509.343 323.258 509.203 323.48 508.97 323.6C508.737 323.72 508.473 323.713 508.224 323.598L370.515 256.951C370.235 256.802 370.033 256.519 370.001 256.236C369.97 255.921 370.109 255.637 370.357 255.502L520.404 166.415C520.668 166.266 520.994 166.279 521.274 166.459C521.321 166.51 521.383 166.546 521.445 166.614L521.445 166.583ZM507.786 321.594L519.91 168.681L372.581 256.148L507.802 321.58L507.786 321.594Z" fill="#4291DC"/>
<path d="M509.109 322.317C509.202 322.419 509.28 322.535 509.311 322.662C509.389 322.903 509.358 323.15 509.234 323.358L438.009 432.663C437.839 432.914 437.544 433.029 437.233 432.97C436.922 432.912 436.657 432.687 436.548 432.381L370.064 256.429C369.939 256.106 370.016 255.754 370.249 255.571C370.482 255.357 370.824 255.325 371.135 255.476L508.844 322.122C508.844 322.122 509.046 322.249 509.124 322.334L509.109 322.317ZM437.478 430.34L507.307 323.159L372.272 257.806L437.462 430.323L437.478 430.34Z" fill="#4291DC"/>
<path d="M371.414 255.656C371.492 255.741 371.554 255.84 371.601 255.953L438.086 431.905C438.226 432.276 438.102 432.671 437.792 432.863C437.481 433.054 437.046 432.985 436.781 432.697L264.993 258.254C264.744 257.982 264.682 257.665 264.775 257.361C264.867 257.057 265.147 256.863 265.473 256.876L370.777 255.367C371.025 255.357 371.274 255.473 371.445 255.659L371.414 255.656ZM435.237 428.897L370.297 257.026L267.434 258.481L435.253 428.883L435.237 428.897Z" fill="#4291DC"/>
</g>
<g opacity="0.3">
<path d="M845.856 -24.6783C846.105 -24.4071 846.168 -23.996 846.013 -23.6975L691.829 260.209C691.658 260.522 691.301 260.663 690.928 260.568C690.57 260.459 690.29 260.123 690.274 259.762L659.074 -186.102C659.058 -186.431 659.213 -186.729 659.508 -186.844C659.788 -186.976 660.145 -186.898 660.394 -186.689L845.778 -24.7318C845.778 -24.7318 845.825 -24.6809 845.856 -24.647L845.856 -24.6783ZM691.699 256.829L844.225 -24.0241L660.833 -184.218L691.699 256.829Z" fill="#4291DC"/>
</g>
<g opacity="0.3">
<path d="M660.425 -186.656L660.456 -186.622C660.596 -186.469 660.689 -186.274 660.705 -186.07L691.905 259.794C691.937 260.14 691.735 260.45 691.44 260.565L473.608 341.264C473.313 341.379 472.955 341.301 472.722 341.047C472.473 340.807 472.395 340.441 472.503 340.154L659.058 -186.212C659.073 -186.414 659.15 -186.61 659.306 -186.753C659.632 -187.052 660.16 -187.006 660.487 -186.65L660.425 -186.656ZM690.21 259.195L659.328 -182.024L474.646 339.061L690.21 259.195Z" fill="#4291DC"/>
</g>
<g opacity="0.3">
<path d="M691.656 259.243C691.89 259.497 691.968 259.862 691.844 260.164L646.985 364.127C646.845 364.443 646.535 364.603 646.193 364.574L473.22 341.309C472.831 341.26 472.52 340.952 472.457 340.572C472.395 340.192 472.581 339.834 472.922 339.708L690.755 259.008C691.05 258.894 691.423 258.988 691.656 259.243ZM645.662 362.843L689.499 261.255L476.684 340.096L645.662 362.812L645.662 362.843Z" fill="#4291DC"/>
</g>
<g opacity="0.3">
<path d="M646.796 363.206C646.921 363.341 647.015 363.537 647.046 363.727C647.078 364.135 646.829 364.488 646.441 364.563L440.886 401.12C440.56 401.17 440.249 401.049 440.031 400.75C439.828 400.467 439.797 400.121 439.936 399.837L472.534 340.032C472.689 339.765 472.984 339.619 473.311 339.663L646.283 362.927C646.485 362.961 646.688 363.056 646.828 363.209L646.796 363.206ZM442.251 399.148L640.814 363.826L473.733 341.368L442.251 399.148Z" fill="#4291DC"/>
</g>
<g opacity="0.3">
<path d="M660.456 -186.622C660.674 -186.385 660.752 -186.05 660.659 -185.747L474.027 340.816C473.949 341.044 473.779 341.201 473.546 341.258C473.313 341.316 473.079 341.312 472.877 341.185L186.94 176.655C186.691 176.509 186.519 176.26 186.488 175.977C186.456 175.693 186.565 175.437 186.782 175.269L659.352 -186.796C659.631 -187.021 660.051 -187 660.347 -186.772C660.378 -186.738 660.424 -186.687 660.456 -186.653L660.456 -186.622ZM472.766 339.288L658.113 -183.659L188.788 175.895L472.766 339.288Z" fill="#4291DC"/>
</g>
<g opacity="0.3">
<path d="M187.902 175.43C187.902 175.43 188.011 175.548 188.042 175.645C188.198 175.97 188.152 176.356 187.919 176.601L164.516 199.437C164.252 199.679 163.863 199.724 163.537 199.524L133.051 181.188C132.739 181.005 132.552 180.645 132.614 180.276C132.66 179.922 132.94 179.665 133.297 179.649L187.218 175.152C187.482 175.128 187.762 175.246 187.949 175.449L187.902 175.43ZM163.721 197.761L185.014 176.989L135.988 181.084L163.721 197.761Z" fill="#4291DC"/>
</g>
<g opacity="0.3">
<path d="M392.157 340.77C392.422 341.058 392.485 341.5 392.267 341.793C392.05 342.149 391.553 342.23 391.18 341.979L163.505 199.489C163.272 199.36 163.132 199.114 163.069 198.859C163.038 198.606 163.115 198.348 163.27 198.174L186.674 175.338C186.969 175.067 187.419 175.059 187.762 175.339L392.033 340.665C392.033 340.665 392.095 340.733 392.126 340.767L392.157 340.77ZM165.245 198.704L380.927 333.681L187.438 177.073L165.26 198.721L165.245 198.704Z" fill="#4291DC"/>
</g>
<g opacity="0.3">
<path d="M473.824 339.942C474.011 340.145 474.104 340.434 474.058 340.695C473.996 341.064 473.701 341.304 473.328 341.303L391.646 342.114C391.444 342.112 391.242 342.047 391.087 341.909L186.815 176.583C186.473 176.304 186.364 175.81 186.596 175.472C186.813 175.116 187.279 175.032 187.668 175.237L473.606 339.767C473.606 339.767 473.762 339.874 473.824 339.942ZM391.784 340.457L470.234 339.677L195.557 181.646L391.768 340.471L391.784 340.457Z" fill="#4291DC"/>
</g>
<g opacity="0.3">
<path d="M473.824 339.941C473.824 339.941 473.902 340.026 473.933 340.06C474.088 340.323 474.136 340.655 473.981 340.922L441.383 400.727C441.259 400.965 441.01 401.1 440.761 401.109C440.497 401.133 440.233 401.001 440.046 400.767L390.962 341.773C390.744 341.536 390.681 341.187 390.805 340.917C390.914 340.63 391.178 340.45 391.488 340.446L473.171 339.635C473.419 339.625 473.668 339.74 473.839 339.927L473.824 339.941ZM440.478 398.839L471.821 341.312L393.278 342.083L440.478 398.807L440.478 398.839Z" fill="#4291DC"/>
</g>
<g opacity="0.3">
<path d="M646.797 363.207C646.953 363.376 647.046 363.603 647.047 363.852L639.467 564.613C639.452 564.908 639.266 565.172 639.002 565.29C638.722 565.39 638.396 565.346 638.147 565.138L440.171 400.934C439.907 400.709 439.782 400.386 439.844 400.079C439.906 399.773 440.138 399.528 440.449 399.492L646.004 362.935C646.253 362.894 646.517 362.964 646.719 363.153C646.735 363.17 646.766 363.204 646.782 363.221L646.797 363.207ZM637.864 562.836L645.354 364.751L442.533 400.827L637.864 562.836Z" fill="#4291DC"/>
</g>
</g>
</svg>
