<svg width="781" height="466" viewBox="0 0 781 466" fill="none" xmlns="http://www.w3.org/2000/svg">
<g opacity="0.5">
<g opacity="0.8">
<path d="M304.927 517.025C304.788 517.076 304.668 517.174 304.587 517.275C304.432 517.494 304.416 517.769 304.566 517.965L378.881 629.076C379.055 629.335 379.343 629.427 379.706 629.294L570.994 552.239C571.288 552.131 571.46 551.852 571.431 551.557C571.407 551.279 571.187 551.054 570.875 551.007L305.272 516.952C305.151 516.942 305.036 516.949 304.932 516.987L304.927 517.025ZM379.754 627.929L306.528 518.448L568.243 552.01L379.736 627.935L379.754 627.929Z" fill="#4291DC"/>
<path d="M304.927 517.025C304.65 517.126 304.449 517.38 304.456 517.665C304.451 517.972 304.694 518.206 305.005 518.253L570.608 552.309C570.897 552.346 571.179 552.207 571.328 551.972L647.859 431.366C648.008 431.132 647.99 430.869 647.834 430.657C647.683 430.461 647.395 430.37 647.13 430.449L304.978 517.006C304.978 517.006 304.927 517.025 304.909 517.031L304.927 517.025ZM570.414 550.979L308.561 517.413L645.866 432.081L570.414 550.979Z" fill="#4291DC"/>
<path d="M647.078 430.468C646.94 430.519 646.802 430.624 646.715 430.763L570.185 551.369C570.035 551.603 570.042 551.888 570.216 552.094C570.389 552.299 570.672 552.375 570.954 552.289L639.529 530.643C639.8 530.579 640.001 530.326 640.017 530.05L647.974 431.252C648.037 431.104 648.042 430.958 647.99 430.815C647.868 430.483 647.521 430.287 647.112 430.455L647.078 430.468ZM572.252 550.537L646.402 433.698L638.684 529.571L572.252 550.537Z" fill="#4291DC"/>
<path d="M687.396 414.177L647.077 430.468C646.818 430.563 646.646 430.788 646.641 431.042L638.667 530.008C638.645 530.321 638.883 530.593 639.194 530.64C639.529 530.697 639.857 530.522 639.977 530.209L688.264 414.936C688.373 414.699 688.314 414.433 688.112 414.256C687.932 414.088 687.661 414.044 687.402 414.139L687.396 414.177ZM647.94 431.48L686.393 415.929L640.344 525.871L647.934 431.465L647.94 431.48Z" fill="#4291DC"/>
<path d="M584.031 262.232C583.945 262.264 583.864 262.312 583.79 262.375L304.707 517.177C304.489 517.383 304.426 517.693 304.56 517.95C304.71 518.2 305.011 518.323 305.316 518.247L647.467 431.69C647.663 431.636 647.818 431.525 647.916 431.363C648.014 431.202 648.025 431.018 647.961 430.844L584.909 262.592C584.833 262.387 584.648 262.257 584.435 262.21C584.308 262.185 584.175 262.197 584.054 262.242L584.031 262.232ZM307.461 516.399L583.933 263.993L646.403 430.662L307.461 516.399Z" fill="#4291DC"/>
<path d="M593.619 231.804C593.412 231.88 593.257 232.045 593.177 232.254L583.584 262.666C583.504 262.929 583.609 263.214 583.84 263.363C584.071 263.511 584.399 263.498 584.647 263.317L601.434 250.879C601.682 250.699 601.767 250.398 601.668 250.129L594.474 232.154C594.381 231.901 594.109 231.749 593.804 231.772C593.729 231.781 593.671 231.785 593.602 231.81L593.619 231.804ZM585.499 261.1L593.91 234.409L600.233 250.172L585.493 261.084L585.499 261.1Z" fill="#4291DC"/>
<path d="M600.813 249.779C600.813 249.779 600.675 249.829 600.617 249.886L583.83 262.324C583.554 262.534 583.468 262.888 583.642 263.148L657.581 385.083C657.749 385.38 658.153 385.465 658.47 385.313C658.804 385.154 658.947 384.797 658.813 384.486L601.656 250.097C601.586 249.908 601.424 249.787 601.211 249.74C601.084 249.715 600.928 249.718 600.807 249.763L600.813 249.779ZM585.118 262.947L600.703 251.4L653.776 376.172L585.124 262.963L585.118 262.947Z" fill="#4291DC"/>
<path d="M584.032 262.232C584.032 262.232 583.998 262.245 583.98 262.251C583.664 262.404 583.498 262.752 583.614 263.068L646.665 431.32C646.764 431.589 647.042 431.757 647.359 431.712C647.658 431.674 647.917 431.471 647.985 431.176L658.878 384.876C658.918 384.717 658.883 384.569 658.814 384.432L584.875 262.497C584.718 262.231 584.366 262.127 584.055 262.242L584.032 262.232ZM647.165 428.73L587.48 269.478L657.471 384.89L647.159 428.714L647.165 428.73Z" fill="#4291DC"/>
<path d="M657.971 384.167C657.746 384.25 657.58 384.437 657.523 384.655L646.63 430.956C646.579 431.19 646.66 431.412 646.851 431.557C647.041 431.703 647.301 431.715 647.543 431.626L687.862 415.336C688.069 415.259 688.236 415.072 688.282 414.876C688.344 414.673 688.286 414.461 688.13 414.303L658.704 384.293C658.542 384.119 658.265 384.059 658.017 384.133C658.017 384.133 657.982 384.145 657.965 384.152L657.971 384.167ZM648.241 430.005L658.571 386.12L686.458 414.558L648.241 430.005Z" fill="#4291DC"/>
<path d="M687.397 414.177C687.207 414.247 687.063 414.39 686.971 414.567L638.684 529.84C638.599 530.033 638.617 530.242 638.738 530.413C638.86 530.584 639.05 530.675 639.269 530.684L761.622 533.744C761.876 533.741 762.124 533.614 762.25 533.424C762.388 533.211 762.393 532.958 762.265 532.772L688.199 414.439C688.066 414.237 687.829 414.126 687.564 414.152C687.512 414.171 687.455 414.174 687.385 414.199L687.397 414.177ZM640.315 529.42L687.72 416.232L760.448 532.416L640.309 529.404L640.315 529.42Z" fill="#4291DC"/>
</g>
<g opacity="0.3">
<path d="M502.901 119.071C502.711 119.141 502.561 119.267 502.493 119.454L478.895 172.651C478.803 172.882 478.833 173.123 479.001 173.313C479.163 173.487 479.422 173.553 479.676 173.496L527.138 160.525C527.328 160.455 527.518 160.331 527.604 160.138C527.696 159.96 527.678 159.751 527.574 159.574L503.709 119.348C503.593 119.14 503.333 119.02 503.068 119.045C503.016 119.064 502.941 119.074 502.889 119.093L502.901 119.071ZM480.691 171.883L503.207 121.131L525.976 159.497L480.709 171.877L480.691 171.883Z" fill="#4291DC"/>
</g>
<g opacity="0.3">
<path d="M502.901 119.071C502.901 119.071 502.728 119.134 502.659 119.214L428.277 185.417C428.042 185.629 427.979 185.94 428.13 186.19C428.28 186.44 428.581 186.563 428.886 186.486L479.687 173.474C479.918 173.407 480.084 173.274 480.17 173.081L503.768 119.884C503.9 119.602 503.801 119.279 503.529 119.127C503.35 119.013 503.108 118.995 502.918 119.064L502.901 119.071ZM431.118 184.607L501.284 122.143L479.032 172.331L431.118 184.607Z" fill="#4291DC"/>
</g>
<g opacity="0.3">
<path d="M428.525 185.29C428.421 185.328 428.323 185.382 428.254 185.461L369.388 243.717C369.141 243.952 369.125 244.335 369.327 244.566C369.553 244.806 369.922 244.85 370.221 244.65L479.889 173.382C480.176 173.204 480.268 172.865 480.146 172.587C480.024 172.308 479.695 172.16 479.372 172.242L428.571 185.255C428.571 185.255 428.519 185.274 428.502 185.281L428.525 185.29ZM374.763 240.197L429.088 186.448L475.959 174.431L374.78 240.191L374.763 240.197Z" fill="#4291DC"/>
</g>
<g opacity="0.3">
<path d="M479.308 172.284C479.308 172.284 479.205 172.322 479.159 172.357L369.491 243.625C369.273 243.778 369.147 244.022 369.176 244.262L389.76 381.065C389.807 381.353 390.038 381.555 390.361 381.58C390.661 381.596 390.954 381.434 391.086 381.152L480.153 173.087C480.273 172.827 480.186 172.536 479.966 172.365C479.781 172.236 479.533 172.201 479.308 172.284ZM370.607 244.419L478.087 174.564L390.79 378.477L370.624 244.413L370.607 244.419Z" fill="#4291DC"/>
</g>
<g opacity="0.3">
<path d="M318.648 259.671C318.458 259.741 318.314 259.884 318.24 260.055C318.154 260.248 318.166 260.441 318.264 260.602L389.852 381.264C390.009 381.53 390.344 381.641 390.672 381.52C390.948 381.418 391.184 381.098 391.131 380.794L370.548 243.992C370.518 243.805 370.42 243.644 370.252 243.561C370.079 243.463 369.877 243.448 369.687 243.518L318.694 259.636C318.694 259.636 318.677 259.643 318.659 259.649L318.648 259.671ZM389.253 377.551L319.873 260.604L369.299 244.971L389.247 377.536L389.253 377.551Z" fill="#4291DC"/>
</g>
<g opacity="0.3">
<path d="M612.347 50.9365C612.347 50.9365 612.261 50.9682 612.209 50.9873L502.751 119.144C502.446 119.328 502.332 119.711 502.5 120.008L526.365 160.234C526.469 160.411 526.671 160.535 526.908 160.538C527.144 160.54 527.363 160.442 527.512 160.261L613.008 51.9868C613.221 51.8188 613.329 51.5274 613.236 51.2743C613.114 50.942 612.721 50.7809 612.359 50.9143C612.359 50.9143 612.341 50.9206 612.324 50.927L612.347 50.9365ZM504.016 119.864L609.773 54.0197L527.069 158.736L504.016 119.864Z" fill="#4291DC"/>
</g>
<g opacity="0.3">
<path d="M612.347 50.9364C612.226 50.9808 612.117 51.0569 612.019 51.1647L526.426 159.547C526.254 159.772 526.243 160.063 526.382 160.282C526.539 160.494 526.816 160.607 527.098 160.521L718.277 113.267C718.565 113.197 718.761 112.982 718.806 112.732C718.869 112.475 718.741 112.235 718.516 112.102L612.93 50.9737C612.751 50.8599 612.514 50.857 612.324 50.9269L612.347 50.9364ZM528.638 158.842L612.703 52.386L716.418 112.424L528.615 158.832L528.638 158.842Z" fill="#4291DC"/>
</g>
<g opacity="0.3">
<path d="M526.765 159.297C526.489 159.398 526.294 159.668 526.294 159.937L531.922 418.333C531.929 418.618 532.131 418.849 532.432 418.919C532.726 418.972 533.048 418.836 533.192 418.585L718.743 112.935C718.875 112.706 718.874 112.437 718.706 112.248C718.556 112.051 718.273 111.976 718.019 112.033L526.84 159.287C526.84 159.287 526.788 159.306 526.754 159.319L526.765 159.297ZM533.253 415.977L527.685 160.359L716.802 113.63L533.253 415.977Z" fill="#4291DC"/>
</g>
<g opacity="0.3">
<path d="M479.309 172.284C478.98 172.404 478.785 172.727 478.861 173.041L531.952 418.466C532.028 418.78 532.34 418.988 532.691 418.931C533.043 418.874 533.307 418.579 533.306 418.256L527.678 159.859C527.666 159.666 527.579 159.483 527.423 159.378C527.267 159.274 527.053 159.227 526.84 159.287L479.378 172.258C479.378 172.258 479.343 172.271 479.309 172.284ZM531.779 411.166L480.338 173.324L526.32 160.754L531.779 411.166Z" fill="#4291DC"/>
</g>
<g opacity="0.3">
<path d="M479.308 172.284C479.118 172.354 478.969 172.48 478.9 172.667L389.833 380.732C389.759 380.904 389.765 381.081 389.841 381.233C389.916 381.385 390.061 381.511 390.251 381.549L532.408 418.909C532.645 418.966 532.898 418.909 533.076 418.753C533.255 418.598 533.34 418.351 533.299 418.133L480.256 172.887C480.256 172.887 480.267 172.704 480.232 172.609C480.11 172.277 479.717 172.116 479.354 172.249L479.308 172.284ZM391.361 380.512L479.3 175.089L531.711 417.387L391.355 380.497L391.361 380.512Z" fill="#4291DC"/>
</g>
<g opacity="0.3">
<path d="M532.398 417.709C532.398 417.709 532.381 417.716 532.364 417.722L378.297 481.691C378.02 481.792 377.848 482.071 377.855 482.356C377.879 482.634 378.081 482.865 378.37 482.903L526.265 509.3C526.455 509.338 526.668 509.277 526.841 509.16C527.013 509.043 527.105 508.865 527.116 508.682L533.305 418.31C533.322 418.088 533.212 417.895 533.027 417.766C532.848 417.652 532.606 417.633 532.398 417.709ZM380.812 482.023L531.867 419.306L525.799 507.926L380.8 482.046L380.812 482.023Z" fill="#4291DC"/>
</g>
<g opacity="0.3">
<path d="M390.236 380.333C390.236 380.333 390.133 380.371 390.087 380.406C389.914 380.523 389.799 380.691 389.777 380.897L377.867 482.226C377.833 482.454 377.949 482.662 378.134 482.792C378.319 482.922 378.567 482.956 378.803 482.851L532.87 418.883C533.146 418.781 533.307 418.525 533.306 418.256C533.305 417.987 533.126 417.765 532.843 417.69L390.686 380.329C390.536 380.295 390.381 380.298 390.242 380.349L390.236 380.333ZM379.351 481.249L391.054 381.757L530.625 418.433L379.369 481.243L379.351 481.249Z" fill="#4291DC"/>
</g>
<g opacity="0.3">
<path d="M717.985 112.046L717.95 112.058C717.795 112.115 717.657 112.22 717.571 112.359L532.02 418.01C531.87 418.245 531.9 418.539 532.068 418.729L657.414 555.932C657.582 556.122 657.865 556.197 658.124 556.102C658.389 556.023 658.579 555.791 658.607 555.548L718.795 112.861C718.858 112.713 718.874 112.545 718.816 112.387C718.694 112.054 718.301 111.893 717.939 112.027L717.985 112.046ZM533.444 418.205L717.068 115.741L657.483 553.985L533.444 418.205Z" fill="#4291DC"/>
</g>
<g opacity="0.3">
<path d="M532.399 417.709C532.14 417.804 531.95 418.036 531.928 418.295L525.738 508.667C525.722 508.942 525.884 509.17 526.138 509.274L657.674 556.106C657.969 556.213 658.303 556.108 658.486 555.861C658.67 555.614 658.669 555.291 658.472 555.076L533.126 417.873C532.958 417.683 532.658 417.614 532.399 417.709ZM527.15 508.238L533.196 419.931L655.655 553.974L527.161 508.216L527.15 508.238Z" fill="#4291DC"/>
</g>
<g opacity="0.3">
<path d="M502.901 119.071C502.901 119.071 502.884 119.077 502.866 119.083L389.823 167.023C389.581 167.112 389.414 167.353 389.386 167.596C389.358 167.84 389.503 168.074 389.734 168.169L428.396 186.433C428.656 186.553 428.973 186.508 429.191 186.302L503.573 120.099C503.826 119.88 503.877 119.538 503.703 119.279C503.535 119.035 503.206 118.941 502.895 119.055L502.901 119.071ZM391.652 167.626L499.807 121.752L428.651 185.1L391.67 167.619L391.652 167.626Z" fill="#4291DC"/>
</g>
<g opacity="0.3">
<path d="M389.863 167.026C389.863 167.026 389.828 167.039 389.811 167.045C389.604 167.121 389.472 167.296 389.409 167.498L369.205 244.018C369.131 244.297 369.258 244.591 369.536 244.705C369.795 244.825 370.13 244.774 370.36 244.546L429.226 186.29C429.387 186.141 429.45 185.938 429.414 185.735C429.379 185.533 429.263 185.378 429.073 185.286L390.411 167.022C390.243 166.94 390.047 166.941 389.857 167.01L389.863 167.026ZM371.142 241.977L390.525 168.561L427.622 186.089L371.142 241.977Z" fill="#4291DC"/>
</g>
<g opacity="0.3">
<path d="M389.863 167.026C389.742 167.071 389.615 167.153 389.54 167.27L318.343 259.909C318.171 260.134 318.166 260.441 318.322 260.653C318.479 260.865 318.784 260.95 319.067 260.864L370.06 244.746C370.267 244.669 370.474 244.486 370.531 244.267L390.735 167.747C390.821 167.446 390.653 167.149 390.376 167.035C390.214 166.969 390.018 166.969 389.863 167.026ZM320.635 259.049L388.594 170.618L369.307 243.657L320.635 259.049Z" fill="#4291DC"/>
</g>
<g opacity="0.3">
<path d="M318.648 259.671C318.476 259.735 318.343 259.855 318.263 260.01L253.368 382.177C253.265 382.376 253.271 382.608 253.393 382.778C253.514 382.949 253.716 383.072 253.947 383.06L390.436 381.571C390.673 381.574 390.92 381.447 391.041 381.241C391.167 381.051 391.172 380.797 391.062 380.604L319.474 259.942C319.358 259.734 319.121 259.623 318.873 259.642C318.798 259.652 318.723 259.661 318.654 259.687L318.648 259.671ZM255.062 381.77L318.879 261.634L389.279 380.29L255.056 381.754L255.062 381.77Z" fill="#4291DC"/>
</g>
<g opacity="0.3">
<path d="M239.239 277.666C238.928 277.78 238.738 278.065 238.774 278.376L253.282 382.532C253.323 382.804 253.56 383.022 253.843 383.044C254.131 383.082 254.425 382.92 254.568 382.669L319.464 260.503C319.579 260.281 319.56 260.018 319.398 259.844C319.248 259.648 318.988 259.582 318.735 259.639L239.325 277.634C239.325 277.634 239.256 277.66 239.239 277.666ZM254.353 380.27L240.217 278.725L317.615 261.182L254.353 380.27Z" fill="#4291DC"/>
</g>
<g opacity="0.3">
<path d="M253.753 381.838C253.563 381.907 253.414 382.034 253.345 382.221C253.242 382.475 253.306 382.756 253.509 382.933L378.071 482.779C378.261 482.925 378.527 482.953 378.769 482.864C379.01 482.775 379.183 482.55 379.211 482.306L391.121 380.978C391.138 380.81 391.091 380.63 390.947 380.503C390.819 380.37 390.64 380.31 390.462 380.304L253.972 381.793C253.972 381.793 253.799 381.803 253.713 381.835L253.753 381.838ZM378.019 480.984L255.827 383.051L389.699 381.59L378.002 480.991L378.019 480.984Z" fill="#4291DC"/>
</g>
<g opacity="0.3">
<path d="M217.5 279.459C217.362 279.51 217.235 279.592 217.161 279.709C217.046 279.877 217.006 280.09 217.076 280.279L253.323 382.642C253.434 382.943 253.775 383.123 254.132 383.028C254.46 382.961 254.707 382.619 254.666 382.293L240.158 278.137C240.116 277.811 239.816 277.58 239.458 277.621L217.719 279.414C217.719 279.414 217.587 279.427 217.517 279.453L217.5 279.459ZM252.351 375.78L218.651 280.616L238.868 278.952L252.351 375.78Z" fill="#4291DC"/>
</g>
<g opacity="0.3">
<path d="M217.5 279.459C217.327 279.522 217.195 279.643 217.097 279.804L174.945 361.23C174.853 361.407 174.842 361.591 174.923 361.759C174.987 361.933 175.149 362.053 175.339 362.091L253.739 383.028C253.976 383.085 254.247 383.021 254.436 382.844C254.626 382.666 254.689 382.41 254.607 382.188L218.424 279.999C218.424 279.999 218.412 279.86 218.389 279.797C218.267 279.464 217.903 279.275 217.511 279.437L217.5 279.459ZM176.53 361.06L217.593 281.742L252.904 381.449L176.524 361.045L176.53 361.06Z" fill="#4291DC"/>
</g>
<g opacity="0.3">
<path d="M253.753 381.838C253.632 381.882 253.523 381.958 253.436 382.044L103.466 556.527C103.27 556.743 103.248 557.056 103.405 557.268C103.567 557.496 103.855 557.587 104.143 557.517L378.699 482.89C378.952 482.832 379.136 482.639 379.205 482.398C379.273 482.158 379.192 481.936 378.995 481.775L254.434 381.929C254.295 381.818 254.116 381.758 253.931 381.79C253.88 381.809 253.822 381.812 253.753 381.838ZM105.828 555.749L254.034 383.351L377.122 482.014L105.828 555.749Z" fill="#4291DC"/>
</g>
<g opacity="0.3">
<path d="M175.346 360.885C175.156 360.955 174.995 361.104 174.909 361.297L103.345 556.733C103.236 557.025 103.37 557.335 103.658 557.48C103.947 557.625 104.304 557.53 104.511 557.292L254.488 382.825C254.643 382.66 254.677 382.432 254.624 382.236C254.554 382.046 254.398 381.888 254.179 381.825L175.779 360.887C175.629 360.853 175.473 360.856 175.335 360.907L175.346 360.885ZM105.855 553.745L175.979 362.286L252.792 382.801L105.855 553.745Z" fill="#4291DC"/>
</g>
<g opacity="0.3">
<path d="M717.951 112.058C717.709 112.147 717.531 112.356 717.485 112.606L657.281 555.46C657.253 555.65 657.317 555.824 657.461 555.951C657.606 556.077 657.773 556.159 657.963 556.143L921.595 543.902C921.825 543.89 922.038 543.775 922.165 543.585C922.291 543.395 922.308 543.174 922.215 542.974L718.799 112.339C718.683 112.076 718.377 111.937 718.083 111.992C718.049 112.004 717.997 112.023 717.962 112.036L717.951 112.058ZM658.738 554.835L718.531 115.024L920.559 542.685L658.738 554.835Z" fill="#4291DC"/>
</g>
<g opacity="0.3">
<path d="M612.347 50.9367C612.191 50.9938 612.053 51.0985 611.973 51.2537C611.806 51.5483 611.9 51.9091 612.194 52.0703L717.78 113.198C718.006 113.331 718.317 113.325 718.547 113.15C718.783 112.992 718.897 112.716 718.828 112.472L712.322 86.0723C712.269 85.8761 712.131 85.7117 711.929 85.6422L612.848 50.914C612.692 50.8635 612.514 50.8573 612.358 50.9145L612.347 50.9367ZM717.111 111.271L618.983 54.4785L711.061 86.7512L717.117 111.287L717.111 111.271Z" fill="#4291DC"/>
</g>
<g opacity="0.3">
<path d="M103.777 556.305C103.552 556.388 103.385 556.575 103.328 556.793C103.277 557.027 103.37 557.281 103.578 557.42L364.631 728.948C364.839 729.087 365.099 729.099 365.329 728.979C365.565 728.874 365.714 728.639 365.731 728.418L379.233 482.262C379.238 482.063 379.151 481.879 378.99 481.759C378.828 481.639 378.597 481.598 378.401 481.652L103.828 556.286C103.828 556.286 103.794 556.299 103.759 556.311L103.777 556.305ZM364.43 727.226L105.555 557.142L377.806 483.128L364.413 727.232L364.43 727.226Z" fill="#4291DC"/>
</g>
<g opacity="0.3">
<path d="M378.314 481.684C378.193 481.729 378.101 481.798 378.015 481.884C377.848 482.071 377.809 482.337 377.907 482.552L457.641 654.515C457.745 654.746 457.994 654.888 458.265 654.879C458.536 654.869 458.783 654.688 458.898 654.466L527.065 508.916C527.157 508.738 527.145 508.545 527.063 508.378C526.982 508.21 526.803 508.096 526.613 508.058L378.718 481.662C378.591 481.636 378.458 481.649 378.337 481.694L378.314 481.684ZM458.281 652.628L379.691 483.136L525.469 509.161L458.281 652.628Z" fill="#4291DC"/>
</g>
</g>
</svg>
